<?xml version="1.0" encoding="UTF-8"?>
<svg xmlns="http://www.w3.org/2000/svg" version="1.1" viewBox="0 0 192 84">
  <defs>
    <style>
      .cls-1 {
        fill: #07315c;
      }

      .cls-2 {
        fill: #5b8bbd;
      }

      .cls-3 {
        fill: #07325c;
      }

      .cls-4 {
        fill: #2364a6;
      }

      .cls-5 {
        fill: #09335d;
      }

      .cls-6 {
        fill: #09345e;
      }

      .cls-7 {
        fill: #2464a7;
      }

      .cls-8 {
        fill: #51b13e;
      }

      .cls-9 {
        fill: #1b5897;
      }

      .cls-10 {
        fill: #1e7a44;
      }
    </style>
  </defs>
  <!-- Generator: Adobe Illustrator 28.6.0, SVG Export Plug-In . SVG Version: 1.2.0 Build 709)  -->
  <g>
    <g id="Layer_1">
      <path class="cls-8" d="M0,0"/>
      <path class="cls-10" d="M0,0"/>
      <g>
        <path class="cls-6" d="M122.9,21.7c4,0,8,0,12,0,.9,0,1.1.2,1.1,1.1,0,2.6,0,5.1,0,7.7,0,.9-.3,1.1-1.1,1.1-1.4,0-2.8,0-4.2,0-.9,0-1.2-.1-1.2-1.1,0-2.2,0-2.3-2.3-2.2-5.7,0-11.4-.2-17.2.2-1.4,0-2.7.3-4,.7-7.4,2.1-9.6,7.7-8.6,14.7.8,5.5,4.5,8.7,10.5,9.7,2,.3,4.1.4,6.1.4,6.8,0,13.6,0,20.4,0,1.2,0,1.5.3,1.4,1.5,0,1.4,0,2.8,0,4.2,0,.6-.2.9-.9.9-8.8-.1-17.7.3-26.5-.3-2.5-.2-5-.8-7.3-1.7-6.6-2.7-9.7-7.9-10.3-14.8-.3-3-.1-6,.6-9,1.8-6.9,6.6-10.6,13.3-12.1,2.6-.6,5.2-.9,7.9-.9,3.4,0,6.7,0,10.1,0Z"/>
        <g>
          <path class="cls-5" d="M163.6,21.7c3.5,0,6.9.3,10.2,1.3,7.6,2.3,11.9,7.7,12.4,15.6.2,2.9.1,5.9-.6,8.7-1.6,6.1-5.5,10-11.5,11.7-6.8,1.9-13.6,2-20.4,0-7.6-2.1-11.9-7.6-12.4-15.5-.2-3-.1-6,.6-8.9,1.8-7,6.6-10.7,13.4-12.2,2.7-.6,5.5-.9,8.3-.9ZM164,53.9c1.5,0,3.3-.1,5.1-.4,6.2-1,9.8-4.4,10.5-10.2.9-7-1.6-12.7-9.6-14.5-4.5-1-9-.9-13.4.2-4.8,1.2-8,4.2-8.8,9.3-.2,1.5-.2,3-.1,4.4.4,4.6,2.6,7.9,6.9,9.6,2.9,1.2,6,1.5,9.5,1.5Z"/>
          <path class="cls-3" d="M164,44.2c-3.3,0-6.5,0-9.8,0-1.1,0-1.3-.3-1.3-1.3,0-1.4,0-2.8,0-4.2,0-.7.1-1,.9-1,6.8,0,13.6,0,20.3,0,.6,0,.8.2.8.8,0,1.5,0,3,0,4.5,0,1-.2,1.3-1.2,1.2-3.3,0-6.6,0-9.9,0Z"/>
        </g>
        <g>
          <g>
            <path class="cls-1" d="M5.8,41.2c0-10.3,0-20.5,0-30.8,0-1,.2-1.3,1.3-1.3,16.3,0,32.6,0,48.9,0,19,0,33.7,16.6,31.5,35.5-1.9,16.4-15.5,28.6-32.1,28.6-16.1,0-32.1,0-48.2,0-1.2,0-1.4-.3-1.4-1.4,0-10.2,0-20.4,0-30.7ZM12.4,17.2c-.4.4-.2,1-.3,1.5,0,15.1,0,30.2,0,45.4,0,.5-.2,1,.3,1.5-.2,1.2.5,1.4,1.5,1.4,13.8,0,27.6,0,41.3,0,1.5,0,3,0,4.4-.2,5.3-.6,9.9-2.9,13.7-6.5,7.1-6.7,8.8-15.2,7.3-24.5-.9-5.4-3.6-9.9-7.6-13.6-4.3-3.9-9.4-6.1-15.1-6.2-14.7-.2-29.4,0-44.1,0-1.1,0-1.5.3-1.4,1.4Z"/>
            <path class="cls-4" d="M12.4,65.5c-.4-.4-.2-1-.3-1.5,0-15.1,0-30.2,0-45.4,0-.5-.2-1,.3-1.5,13.3,0,26.6,0,39.9,0,1.6,0,3.1,0,4.7.2,4.3.7,8.2,2.3,11.5,5.2,7.5,6.6,9.3,14.9,7.6,24.3-1,5.4-3.8,9.9-8.2,13.3-4,3.2-8.6,5-13.7,5.1-14,0-27.9,0-41.9,0ZM54.4,32.7c-.4-2.5-1.3-4.8-3-6.6-1.1-1.2-2.7-1.6-4.5-1.3-2.9.6-5.5,2.1-8.1,3.3-1.8.8-1.8.8-2.5-.9-.7-1.7-.7-1.6-2.3-.9-1,.4-1.4.9-.7,1.8,0,0,0,0,0,.1,0,.7,1.5,1.5.2,2.2-1.4.7-1.1-.9-1.6-1.4-.2-.2-.3-.6-.5-.9-.2-.3-.4-.4-.8-.3-1.8.4-2.2,1.1-1.4,2.7,0,.2.1.4.2.5.6.8.2,1.2-.6,1.5-1.4.6-2.7,1.2-4,1.9-.5.2-1,.5-.7,1.2.9,3,1.2,3.2,4,1.8,5.8-2.7,11.6-5.4,17.4-8.1,1.6-.8,3-.1,3.8,1.6,1,2.1.2,3.2-1.2,4-1.6.8-3.2,1.5-4.8,2.2-4.8,2.2-9.6,4.5-14.4,6.7-.6.3-.9.5-.6,1.3,1.8,3.8,3.6,7.6,5.4,11.4.3.7.7.7,1.3.4,1.2-.6,2.4-1.1,3.5-1.7,1.7-.8,1.7-.8,2.4,1,.4,1,.8,1.3,1.9.8,1.3-.5,1.6-1.1.9-2.2-.2-.3-.3-.6-.4-.9-.3-.5-.2-.9.3-1.1.5-.2.9,0,1.1.4.3.5.5,1.1.8,1.6.1.3.2.6.5.5.7-.3,1.6-.5,2.1-1,.6-.5-.1-1.1-.3-1.6,0-.2-.1-.3-.2-.5-.5-.8-.3-1.2.6-1.6,2.4-1.1,5-2.1,7.3-3.5,2.4-1.5,3.5-3.7,2.8-6.1-.4-1.3-.9-2.6-1.7-3.8-.6-1-1.4-1.7-2.6-1.9-.8-.2-1-.5-.5-1.2.4-.4.4-1,.4-1.6Z"/>
            <path class="cls-9" d="M12.4,65.5c14,0,27.9,0,41.9,0,5.1,0,9.7-1.9,13.7-5.1,4.4-3.5,7.1-7.9,8.2-13.3,1.8-9.4-.1-17.8-7.6-24.3-3.3-2.9-7.2-4.5-11.5-5.2-1.6-.3-3.1-.2-4.7-.2-13.3,0-26.6,0-39.9,0-.1-1.1.3-1.4,1.4-1.4,14.7,0,29.4,0,44.1,0,5.7,0,10.8,2.3,15.1,6.2,4.1,3.7,6.8,8.2,7.6,13.6,1.5,9.3-.2,17.8-7.3,24.5-3.8,3.6-8.4,5.9-13.7,6.5-1.5.2-3,.2-4.4.2-13.8,0-27.6,0-41.3,0-1.1,0-1.7-.2-1.5-1.4Z"/>
          </g>
          <path class="cls-2" d="M54.4,32.7c0,.6,0,1.2-.4,1.6-.6.7-.3,1.1.5,1.2,1.2.2,2,.9,2.6,1.9.8,1.2,1.3,2.5,1.7,3.8.7,2.4-.4,4.6-2.8,6.1-2.3,1.4-4.8,2.4-7.3,3.5-.9.4-1.1.8-.6,1.6.1.2.2.3.2.5.2.5.9,1.1.3,1.6-.6.5-1.4.7-2.1,1-.3.1-.4-.3-.5-.5-.2-.6-.5-1.1-.8-1.6-.2-.5-.6-.7-1.1-.4-.6.3-.6.6-.3,1.1.2.3.2.6.4.9.8,1.2.4,1.7-.9,2.2-1.2.5-1.5.1-1.9-.8-.7-1.8-.7-1.8-2.4-1-1.2.6-2.4,1.1-3.5,1.7-.6.3-1,.3-1.3-.4-1.8-3.8-3.6-7.6-5.4-11.4-.4-.7,0-1,.6-1.3,4.8-2.2,9.6-4.5,14.4-6.7,1.6-.7,3.2-1.4,4.8-2.2,1.4-.7,2.2-1.8,1.2-4-.8-1.8-2.2-2.4-3.8-1.6-5.8,2.7-11.6,5.4-17.4,8.1-2.8,1.3-3.2,1.1-4-1.8-.2-.8.2-1,.7-1.2,1.3-.6,2.7-1.3,4-1.9.8-.3,1.2-.7.6-1.5-.1-.1-.2-.3-.2-.5-.8-1.6-.4-2.3,1.4-2.7.4,0,.6,0,.8.3.1.3.2.6.5.9.5.5.3,2.1,1.6,1.4,1.3-.7-.2-1.4-.2-2.2,0,0,0,0,0-.1-.7-.9-.3-1.4.7-1.8,1.6-.7,1.6-.8,2.3.9.7,1.7.7,1.7,2.5.9,2.7-1.2,5.2-2.7,8.1-3.3,1.8-.4,3.3,0,4.5,1.3,1.7,1.8,2.6,4.1,3,6.6ZM54.4,42.2c0-2.6-2-4.3-4.2-3.4-5.2,2.3-10.3,4.7-15.4,7.1-.6.3-.9.6-.5,1.3.6,1.2,1.2,2.5,1.8,3.8.3.8.8.9,1.5.5.8-.4,1.7-.8,2.5-1.2,4.3-2,8.6-4,12.9-6,.9-.4,1.4-1.1,1.4-2.2Z"/>
          <path class="cls-7" d="M54.4,42.2c0,1-.5,1.7-1.4,2.2-4.3,2-8.6,4-12.9,6-.8.4-1.7.8-2.5,1.2-.7.4-1.2.3-1.5-.5-.6-1.3-1.1-2.5-1.8-3.8-.4-.7,0-1,.5-1.3,5.1-2.4,10.3-4.8,15.4-7.1,2.2-1,4.3.8,4.2,3.4Z"/>
        </g>
      </g>
    </g>
  </g>
</svg>