<?xml version="1.0" encoding="UTF-8"?>
<svg xmlns="http://www.w3.org/2000/svg" version="1.1" viewBox="0 0 208 55">
  <defs>
    <style>
      .cls-1 {
        fill: #07315c;
      }

      .cls-2 {
        fill: #5b8bbd;
      }

      .cls-3 {
        fill: #fff;
      }

      .cls-4 {
        fill: #07325c;
      }

      .cls-5 {
        fill: #2364a6;
      }

      .cls-6 {
        fill: #09335d;
      }

      .cls-7 {
        fill: #09345e;
      }

      .cls-8 {
        fill: #2464a7;
      }

      .cls-9 {
        fill: #1b5897;
      }
    </style>
  </defs>
  <!-- Generator: Adobe Illustrator 28.6.0, SVG Export Plug-In . SVG Version: 1.2.0 Build 709)  -->
  <g>
    <g id="Layer_1">
      <path d="M208,48c0,3.9-3.1,7-7,7H7c-3.9,0-7-3.1-7-7V7C0,3.1,3.1,0,7,0h194c3.9,0,7,3.1,7,7v41Z"/>
      <g>
        <path class="cls-3" d="M18,22c.8-.1,1.7-.2,2.7-.2,1.8,0,3.2.4,4,1.2.9.8,1.4,2,1.4,3.6s-.5,3-1.4,3.9-2.5,1.4-4.4,1.4-1.7,0-2.3-.1v-9.8h0ZM19.3,30.8h1.3c2.7,0,4.2-1.5,4.2-4.2s-1.3-3.8-4-3.8-1.2,0-1.5.1v7.9Z"/>
        <path class="cls-3" d="M34.3,28.2c0,2.6-1.8,3.8-3.6,3.8s-3.4-1.4-3.4-3.7,1.6-3.8,3.5-3.8,3.4,1.5,3.4,3.7h0ZM28.6,28.3c0,1.6.9,2.7,2.2,2.7s2.2-1.2,2.2-2.8-.6-2.7-2.1-2.7-2.2,1.4-2.2,2.8h0Z"/>
        <path class="cls-3" d="M36,26.6v-1.9h1.2v1.2h0c.4-.7,1.2-1.3,2.4-1.3s2.5.6,2.5,3v4.3h-1.3v-4.1c0-1.2-.4-2.1-1.7-2.1s-1.5.6-1.7,1.3v4.9h-1.3v-5.2h-.2Z"/>
        <path class="cls-3" d="M48.1,31.8v-.9h0c-.4.6-1.2,1.1-2.2,1.1s-2.2-1-2.2-2.1c0-1.7,1.5-2.7,4.3-2.7h0c0-.7-.2-1.8-1.6-1.8s-1.4.2-1.9.5l-.3-.9c.6-.4,1.4-.6,2.3-.6,2.2,0,2.7,1.5,2.7,2.9v2.7c0,.6,0,1.2,0,1.7h-1.2.1ZM47.9,28.2c-1.4,0-3,.2-3,1.6s.6,1.2,1.2,1.2,1.5-.6,1.7-1.2v-1.6h0Z"/>
        <path class="cls-3" d="M52.8,22.6v2.1h1.9v1h-1.9v3.9c0,.9.3,1.4,1,1.4h.8v1c-.2,0-.6.2-1.1.2s-1.1-.2-1.4-.5c-.4-.4-.5-1-.5-1.9v-3.9h-1.1v-1h1.1v-1.7l1.3-.3v-.3Z"/>
        <path class="cls-3" d="M56.7,28.5c0,1.8,1.2,2.5,2.4,2.5s1.5-.2,2-.4l.2.9c-.5.2-1.2.4-2.4.4-2.2,0-3.5-1.4-3.5-3.6s1.3-3.9,3.3-3.9,3,2.1,3,3.4,0,.5,0,.6h-5ZM60.5,27.6c0-.8-.3-2.1-1.8-2.1s-1.9,1.2-2,2.1h3.8Z"/>
        <path class="cls-3" d="M68.1,22.6v2.1h1.9v1h-1.9v3.9c0,.9.3,1.4,1,1.4h.8v1c-.2,0-.6.2-1.1.2s-1.1-.2-1.4-.5c-.4-.4-.5-1-.5-1.9v-3.9h-1.1v-1h1.1v-1.7l1.3-.3v-.3Z"/>
        <path class="cls-3" d="M77.8,28.2c0,2.6-1.8,3.8-3.6,3.8s-3.4-1.4-3.4-3.7,1.6-3.8,3.5-3.8,3.4,1.5,3.4,3.7h0ZM72.1,28.3c0,1.6.9,2.7,2.2,2.7s2.2-1.2,2.2-2.8-.6-2.7-2.1-2.7-2.2,1.4-2.2,2.8h0Z"/>
      </g>
      <g>
        <path class="cls-1" d="M123,8.3"/>
        <path class="cls-1" d="M122,8.6"/>
        <path class="cls-1" d="M122,8.6"/>
      </g>
      <g>
        <path class="cls-7" d="M159.3,15.6c2.4,0,4.9,0,7.3,0,.5,0,.7.1.7.7,0,1.6,0,3.1,0,4.7,0,.6-.2.7-.7.6-.8,0-1.7,0-2.6,0-.5,0-.7,0-.7-.7,0-1.4,0-1.4-1.4-1.3-3.5,0-7-.1-10.5.1-.8,0-1.6.2-2.4.4-4.5,1.3-5.9,4.7-5.2,9,.5,3.4,2.8,5.3,6.4,5.9,1.2.2,2.5.2,3.7.2,4.1,0,8.3,0,12.4,0,.7,0,.9.2.9.9,0,.8,0,1.7,0,2.5,0,.4-.1.5-.5.5-5.4,0-10.8.2-16.2-.2-1.5-.1-3-.5-4.5-1-4-1.6-5.9-4.8-6.3-9-.2-1.8,0-3.7.4-5.5,1.1-4.2,4-6.5,8.1-7.4,1.6-.4,3.2-.5,4.8-.5,2,0,4.1,0,6.1,0Z"/>
        <g>
          <path class="cls-6" d="M184.1,15.6c2.1,0,4.2.2,6.2.8,4.6,1.4,7.2,4.7,7.5,9.5.1,1.8,0,3.6-.4,5.3-1,3.7-3.4,6.1-7,7.1-4.1,1.2-8.3,1.2-12.4,0-4.6-1.3-7.2-4.6-7.6-9.4-.1-1.8,0-3.6.4-5.4,1.1-4.3,4.1-6.5,8.2-7.4,1.7-.4,3.4-.5,5.1-.5ZM184.4,35.2c.9,0,2,0,3.1-.2,3.8-.6,6-2.7,6.4-6.2.5-4.3-1-7.8-5.9-8.8-2.7-.6-5.5-.6-8.2.1-2.9.8-4.9,2.6-5.4,5.7-.1.9-.1,1.8,0,2.7.2,2.8,1.6,4.8,4.2,5.9,1.8.7,3.7.9,5.8.9Z"/>
          <path class="cls-4" d="M184.3,29.4c-2,0-4,0-5.9,0-.7,0-.8-.2-.8-.8,0-.8,0-1.7,0-2.5,0-.4,0-.6.6-.6,4.1,0,8.3,0,12.4,0,.4,0,.5.1.5.5,0,.9,0,1.8,0,2.7,0,.6-.1.8-.7.8-2,0-4,0-6,0Z"/>
        </g>
        <g>
          <g>
            <path class="cls-1" d="M87.9,27.5c0-6.3,0-12.5,0-18.8,0-.6.1-.8.8-.8,9.9,0,19.9,0,29.8,0,11.6,0,20.5,10.1,19.2,21.7-1.2,10-9.5,17.4-19.5,17.4-9.8,0-19.6,0-29.4,0-.7,0-.9-.2-.9-.9,0-6.2,0-12.5,0-18.7ZM92,12.9c-.3.3-.2.6-.2.9,0,9.2,0,18.4,0,27.7,0,.3-.1.6.2.9-.1.7.3.9.9.9,8.4,0,16.8,0,25.2,0,.9,0,1.8,0,2.7-.1,3.2-.4,6-1.7,8.4-3.9,4.3-4.1,5.4-9.3,4.4-14.9-.5-3.3-2.2-6-4.7-8.3-2.6-2.4-5.7-3.7-9.2-3.8-9-.1-17.9,0-26.9,0-.7,0-.9.2-.9.9Z"/>
            <path class="cls-5" d="M92,42.3c-.3-.3-.2-.6-.2-.9,0-9.2,0-18.4,0-27.7,0-.3-.1-.6.2-.9,8.1,0,16.2,0,24.3,0,1,0,1.9,0,2.9.2,2.6.4,5,1.4,7,3.2,4.5,4,5.7,9.1,4.6,14.8-.6,3.3-2.3,6-5,8.1-2.4,1.9-5.2,3.1-8.3,3.1-8.5,0-17,0-25.5,0ZM117.5,22.4c-.3-1.5-.8-2.9-1.9-4-.7-.7-1.6-1-2.7-.8-1.8.4-3.3,1.3-4.9,2-1.1.5-1.1.5-1.5-.5-.4-1-.4-1-1.4-.6-.6.3-.8.6-.4,1.1,0,0,0,0,0,0,0,.5.9.9.1,1.3-.8.4-.7-.5-1-.9-.1-.1-.2-.3-.3-.5-.1-.2-.2-.3-.5-.2-1.1.2-1.3.7-.8,1.7,0,.1,0,.2.2.3.4.5.1.7-.3.9-.8.4-1.6.8-2.5,1.1-.3.2-.6.3-.5.8.5,1.8.8,1.9,2.5,1.1,3.5-1.7,7.1-3.3,10.6-5,1-.5,1.8,0,2.3,1,.6,1.3.1,2-.7,2.4-.9.5-2,.9-2.9,1.4-2.9,1.4-5.9,2.7-8.8,4.1-.3.2-.6.3-.3.8,1.1,2.3,2.2,4.6,3.3,7,.2.4.4.4.8.2.7-.4,1.4-.7,2.2-1,1-.5,1-.5,1.5.6.2.6.5.8,1.2.5.8-.3,1-.6.5-1.4-.1-.2-.2-.4-.3-.5-.2-.3-.1-.5.2-.7.3-.1.5,0,.7.3.2.3.3.7.5,1,0,.2.1.4.3.3.5-.2,1-.3,1.3-.6.3-.3,0-.7-.2-1,0-.1,0-.2-.2-.3-.3-.5-.2-.7.4-1,1.5-.7,3-1.3,4.4-2.1,1.5-.9,2.1-2.3,1.7-3.7-.2-.8-.6-1.6-1-2.3-.4-.6-.9-1-1.6-1.2-.5-.1-.6-.3-.3-.7.2-.3.3-.6.2-1Z"/>
            <path class="cls-9" d="M92,42.3c8.5,0,17,0,25.5,0,3.1,0,5.9-1.2,8.3-3.1,2.7-2.1,4.4-4.8,5-8.1,1.1-5.7,0-10.8-4.6-14.8-2-1.8-4.4-2.7-7-3.2-1-.2-1.9-.2-2.9-.2-8.1,0-16.2,0-24.3,0,0-.7.2-.9.9-.9,9,0,17.9,0,26.9,0,3.5,0,6.6,1.4,9.2,3.8,2.5,2.2,4.1,5,4.7,8.3.9,5.7,0,10.8-4.4,14.9-2.3,2.2-5.1,3.6-8.4,3.9-.9.1-1.8.1-2.7.1-8.4,0-16.8,0-25.2,0-.7,0-1-.1-.9-.9Z"/>
          </g>
          <path class="cls-2" d="M117.5,22.4c0,.4,0,.7-.2,1-.3.4-.2.6.3.7.7.2,1.2.6,1.6,1.2.5.7.8,1.5,1,2.3.4,1.5-.3,2.8-1.7,3.7-1.4.9-2.9,1.5-4.4,2.1-.6.3-.7.5-.4,1,0,0,.1.2.2.3.1.3.5.7.2,1-.3.3-.8.4-1.3.6-.2,0-.2-.2-.3-.3-.2-.3-.3-.7-.5-1-.1-.3-.4-.4-.7-.3-.3.2-.4.4-.2.7,0,.2.2.4.3.5.5.7.3,1-.5,1.4-.7.3-.9,0-1.2-.5-.4-1.1-.5-1.1-1.5-.6-.7.3-1.4.6-2.2,1-.4.2-.6.2-.8-.2-1.1-2.3-2.2-4.7-3.3-7-.2-.4,0-.6.3-.8,2.9-1.4,5.9-2.7,8.8-4.1,1-.5,2-.9,2.9-1.4.9-.5,1.3-1.1.7-2.4-.5-1.1-1.3-1.5-2.3-1-3.5,1.6-7.1,3.3-10.6,5-1.7.8-1.9.7-2.5-1.1-.1-.5.1-.6.5-.8.8-.4,1.6-.8,2.5-1.1.5-.2.7-.4.3-.9,0,0-.1-.2-.2-.3-.5-1-.3-1.4.8-1.7.2,0,.4,0,.5.2,0,.2.1.4.3.5.3.3.2,1.3,1,.9.8-.4-.1-.9-.1-1.3,0,0,0,0,0,0-.4-.6-.2-.9.4-1.1,1-.4,1-.5,1.4.6.4,1,.5,1,1.5.5,1.6-.7,3.2-1.6,4.9-2,1.1-.2,2,0,2.7.8,1,1.1,1.6,2.5,1.9,4ZM117.5,28.1c0-1.6-1.2-2.6-2.6-2.1-3.1,1.4-6.3,2.9-9.4,4.3-.4.2-.5.4-.3.8.4.8.7,1.5,1.1,2.3.2.5.5.5.9.3.5-.3,1-.5,1.5-.7,2.6-1.2,5.2-2.4,7.9-3.6.6-.3.9-.7.9-1.3Z"/>
          <path class="cls-8" d="M117.5,28.1c0,.6-.3,1.1-.9,1.3-2.6,1.2-5.2,2.4-7.9,3.6-.5.2-1,.5-1.5.7-.4.2-.7.2-.9-.3-.3-.8-.7-1.6-1.1-2.3-.2-.4,0-.6.3-.8,3.1-1.4,6.3-2.9,9.4-4.3,1.3-.6,2.6.5,2.6,2.1Z"/>
        </g>
      </g>
    </g>
  </g>
</svg>