<?xml version="1.0" encoding="UTF-8"?>
<svg xmlns="http://www.w3.org/2000/svg" version="1.1" viewBox="0 0 208 55">
  <defs>
    <style>
      .cls-1 {
        fill: #fff;
      }

      .cls-2 {
        fill: #14901f;
      }

      .cls-3 {
        fill: #007c0c;
      }

      .cls-4 {
        fill: #bcbcbc;
      }
    </style>
  </defs>
  <!-- Generator: Adobe Illustrator 28.6.0, SVG Export Plug-In . SVG Version: 1.2.0 Build 709)  -->
  <g>
    <g id="Layer_1">
      <path d="M208,48c0,3.9-3.1,7-7,7H7c-3.9,0-7-3.1-7-7V7C0,3.1,3.1,0,7,0h194c3.9,0,7,3.1,7,7v41Z"/>
      <g>
        <path class="cls-1" d="M21.8,21.8h2.3c2.8,0,4.3,1.6,4.3,4.6s-1.5,4.6-4.3,4.6h-2.4v-9.2ZM24.1,30c2.1,0,3.2-1.3,3.2-3.7s-1.1-3.6-3.2-3.6h-1v7.3h1Z"/>
        <path class="cls-1" d="M29.8,27.6c0-2.3,1.5-3.6,3.2-3.6s3.2,1.3,3.2,3.6-1.5,3.6-3.2,3.6-3.2-1.3-3.2-3.6ZM35,27.6c0-1.6-.8-2.6-2-2.6s-2,1.1-2,2.6.8,2.6,2,2.6,2-1,2-2.6Z"/>
        <path class="cls-1" d="M37.9,24.1h1v1h.1c.6-.6,1.3-1.1,2.3-1.1,1.4,0,2.1.9,2.1,2.7v4.3h-1.2v-4.2c0-1.3-.4-1.8-1.3-1.8s-1.2.4-1.9,1v4.9h-1.2v-6.8Z"/>
        <path class="cls-1" d="M45.2,29.2c0-1.5,1.3-2.2,4.2-2.5,0-.9-.3-1.7-1.4-1.7s-1.5.4-2,.7l-.5-.8c.6-.4,1.6-.9,2.7-.9,1.7,0,2.4,1.1,2.4,2.8v4.2h-1v-.8h-.1c-.6.5-1.4,1-2.3,1s-2-.7-2-1.9ZM49.3,29.3v-1.9c-2.3.3-3.1.8-3.1,1.7s.5,1.1,1.2,1.1,1.2-.3,1.9-.9Z"/>
        <path class="cls-1" d="M52.6,28.9v-3.8h-1v-.9h1.1c0,0,.1-2,.1-2h1v1.9h1.8v.9h-1.8v3.8c0,.8.3,1.3,1.1,1.3s.6,0,.8-.2l.2.9c-.4.1-.8.3-1.3.3-1.4,0-1.9-.9-1.9-2.3Z"/>
        <path class="cls-1" d="M56.5,27.6c0-2.2,1.5-3.6,3.1-3.6s2.7,1.2,2.7,3.2,0,.5,0,.7h-4.6c0,1.4,1,2.4,2.3,2.4s1.2-.2,1.7-.5l.4.8c-.6.4-1.3.7-2.2.7-1.8,0-3.3-1.3-3.3-3.6ZM61.2,27c0-1.4-.6-2.1-1.7-2.1s-1.8.8-2,2.1h3.6Z"/>
        <path class="cls-1" d="M66.9,28.9v-3.8h-1v-.9h1.1c0,0,.1-2,.1-2h1v1.9h1.8v.9h-1.8v3.8c0,.8.3,1.3,1.1,1.3s.6,0,.8-.2l.2.9c-.4.1-.8.3-1.3.3-1.4,0-1.9-.9-1.9-2.3Z"/>
        <path class="cls-1" d="M70.8,27.6c0-2.3,1.5-3.6,3.2-3.6s3.2,1.3,3.2,3.6-1.5,3.6-3.2,3.6-3.2-1.3-3.2-3.6ZM75.9,27.6c0-1.6-.8-2.6-2-2.6s-2,1.1-2,2.6.8,2.6,2,2.6,2-1,2-2.6Z"/>
      </g>
      <g>
        <path class="cls-1" d="M136.9,25.9c0-4.9,2.9-7.8,6.9-7.8s3.5.9,4.4,1.9l-1.1,1.3c-.8-.8-1.7-1.4-3.2-1.4-3,0-5,2.3-5,6.1s1.8,6.2,5,6.2,2.1-.3,2.7-.9v-3.9h-3.2v-1.6h4.9v6.3c-1,1-2.6,1.8-4.7,1.8-4,0-6.8-2.9-6.8-7.8Z"/>
        <path class="cls-1" d="M155.2,18.3h2.2l5.1,15.1h-2l-2.6-8.4c-.5-1.7-1-3.3-1.5-5.1h0c-.5,1.8-1,3.4-1.5,5.1l-2.7,8.4h-2l5.1-15.1ZM152.8,27.3h6.9v1.5h-6.9v-1.5Z"/>
        <path class="cls-1" d="M166.8,19.9h-4.6v-1.6h11.1v1.6h-4.6v13.5h-1.9v-13.5Z"/>
        <path class="cls-1" d="M176.2,18.3h8.7v1.6h-6.8v4.7h5.7v1.6h-5.7v5.5h7v1.6h-8.9v-15.1Z"/>
      </g>
      <g>
        <path class="cls-4" d="M117.7,44.7h0c0,0-.2,0-.3,0h-1s0,0,0,0c-.4,0-.8-.1-1.2-.2-.3,0-.5-.2-.7-.3,0,0-.1,0-.2-.1-1-.6-1.9-1.4-2.4-2.5-.2-.3-.3-.7-.5-1-1.4-2.7-2.7-5.5-4.1-8.2-.5-1-.8-2.1-.8-3.3,0-.6,0-1.3,0-1.9.1-.9.3-1.8.7-2.7.5-1,1-2.1,1.5-3.1.8-1.7,1.6-3.3,2.4-5,0,0,0-.2,0-.3.2-.3.3-.6.5-.9.6-1.2,1.4-2.2,2.6-2.8.4-.1.8-.3,1.2-.4.2,0,.5,0,.7-.1.4,0,.7,0,1.1,0,0,0,.2,0,.3,0h0c0,0,0,0,.1,0,.7.1,1.4.4,2.1.8.8.5,1.4,1.3,1.8,2.2.7,1.4,1.4,2.8,2,4.2.9,1.7,1.7,3.5,2.6,5.2.5,1,.8,2,.9,3.1,0,0,0,.1,0,.1h0c0,.1,0,.2,0,.2,0,.4,0,.8,0,1.2,0,0,0,0,0,.1h0c0,.1,0,.2,0,.2,0,.2,0,.5,0,.7-.2.9-.5,1.8-.9,2.7-.7,1.4-1.4,2.8-2.1,4.2-.8,1.6-1.6,3.3-2.5,4.9-.2.4-.5.9-.8,1.2-.8.9-1.8,1.4-3,1.6,0,0,0,0,0,0ZM123.1,28.3c0-.9-.2-1.8-.6-2.6-1-2-2-3.9-2.9-5.9-.5-1-1-2-1.5-3-.4-.8-1.3-1-2-.5-.3.2-.5.5-.6.8-.7,1.3-1.3,2.7-2,4-.8,1.5-1.5,3.1-2.3,4.6-.4.8-.6,1.6-.6,2.5,0,1,.2,1.9.6,2.8,1.5,3,3,5.9,4.4,8.9.2.5.6.7,1.2.7.6,0,1-.3,1.3-.9,1.5-2.9,2.9-5.8,4.4-8.8.4-.8.6-1.7.6-2.6Z"/>
        <path class="cls-3" d="M83.5,11.9h8.9c0,0,.1,0,.2,0,2,.4,3.5,1.4,4.6,3.1.5.9.9,1.8,1.4,2.7,0,0,0,.1,0,.2-.3.5-.6,1.1-.8,1.6-.4.7-.8,1.5-1.2,2.2-.1.2-.2.4-.3.6-.4-.7-.7-1.4-1.1-2.1-.5-1-1-1.9-1.4-2.9-.4-.8-1-1.2-1.8-1.3-.5,0-1,0-1.5,0-.2,0-.2,0-.2.2,0,5.5,0,11,0,16.5s0,5.1,0,7.6c0,.1,0,.2.2.2.4,0,.9,0,1.3,0,.2,0,.5,0,.7,0,.7-.2,1.1-.7,1.4-1.3.3-.7.7-1.3,1-2,.5-1,1-2,1.5-3,0,0,0,0,0,.1.2.3.3.6.5,1,.5.9.9,1.8,1.4,2.7.1.2.3.5.4.7-.4.9-.8,1.7-1.3,2.6-.9,1.7-2.3,2.8-4.2,3.2-.2,0-.4,0-.7.1h-8.9s0,0,0,0c-.9-.2-1.4-.8-1.6-1.6,0,0,0,0,0,0v-.7c0,0,0,0,0-.1.2-1,1.1-1.6,2.1-1.6.6,0,1.3,0,1.9,0,.1,0,.2,0,.2-.2,0-8,0-16,0-24.1,0-.1,0-.2-.2-.2-.7,0-1.3,0-2,0-1,0-1.9-.8-2-1.8-.1-1,.5-2,1.5-2.3,0,0,.2,0,.3,0Z"/>
        <path class="cls-2" d="M96.1,22.4c.1-.2.2-.4.3-.6.4-.7.8-1.5,1.2-2.2.3-.5.6-1.1.8-1.6,0,0,0-.1,0-.2,0,0,0-.1.1-.2.4-.8.8-1.7,1.3-2.5.9-1.6,2.3-2.7,4.2-3.2.1,0,.2,0,.4,0h9s0,0,0,0c.3,0,.6.2.9.4-1.2.6-2.1,1.6-2.6,2.8-.1.3-.3.6-.5.9-2,0-4,0-6,0-.6,0-1,.2-1.4.6-.1.2-.3.4-.4.6-.9,1.7-1.8,3.4-2.7,5,0,0,0,.1,0,.2,0,0,0,0,0,0-.3.5-.6,1-.8,1.6-.2.4-.4.8-.6,1.2-.2.5-.5.9-.6,1.4-.2.6-.2,1.3-.2,1.9,0,.5.1,1,.3,1.5.2.4.4.8.6,1.2.4.8.8,1.5,1.2,2.3,0,.1,0,.3.3.4,0,0,0,.1,0,.2.9,1.7,1.8,3.4,2.7,5.1.4.8,1,1.1,1.9,1.1,2,0,3.9,0,5.9,0,.2.3.3.7.5,1,.5,1.1,1.3,1.9,2.4,2.5,0,0,.1,0,.2.1-.2.2-.5.3-.7.4-.1,0-.2,0-.4.1h-8.6s0,0,0,0c-1-.1-1.8-.5-2.7-1-.9-.5-1.6-1.2-2.1-2.1-.4-.9-.9-1.7-1.3-2.5,0,0,0-.1,0-.2,0-.3-.2-.5-.4-.7-.5-.9-.9-1.8-1.4-2.7-.2-.3-.3-.6-.5-1,0,0,0,0,0-.1,0,0,0-.1,0-.2-.2-.4-.4-.9-.7-1.3-.6-1.2-1-2.5-1.1-3.9,0-1.2,0-2.4.4-3.6.2-.7.6-1.3,1-2,.2-.3.4-.6.5-1Z"/>
        <path class="cls-3" d="M100.9,22.5c.7,1.3,1.3,2.6,1.6,4,.4,2,.1,3.8-.7,5.7-.3.6-.6,1.3-.9,1.9-.2,0-.2-.2-.3-.4-.4-.8-.8-1.5-1.2-2.3-.2-.4-.4-.8-.6-1.2-.2-.5-.3-1-.3-1.5,0-.6,0-1.3.2-1.9.1-.5.4-1,.6-1.4.2-.4.4-.8.6-1.2.3-.5.6-1,.8-1.6,0,0,0,0,0,0Z"/>
      </g>
    </g>
  </g>
</svg>