<svg xmlns="http://www.w3.org/2000/svg" viewBox="0 0 208 55" xmlns:v="https://vecta.io/nano"><path d="M208,48c0,3.9-3.1,7-7,7H7c-3.9,0-7-3.1-7-7V7C0,3.1,3.1,0,7,0h194c3.9,0,7,3.1,7,7v41Z"/><path d="M21.8 21.8h2.3c2.8 0 4.3 1.6 4.3 4.6S26.9 31 24.1 31h-2.4v-9.2zm2.3 8.2c2.1 0 3.2-1.3 3.2-3.7s-1.1-3.6-3.2-3.6h-1V30h1zm5.7-2.4c0-2.3 1.5-3.6 3.2-3.6s3.2 1.3 3.2 3.6-1.5 3.6-3.2 3.6-3.2-1.3-3.2-3.6zm5.2 0c0-1.6-.8-2.6-2-2.6s-2 1.1-2 2.6.8 2.6 2 2.6 2-1 2-2.6zm2.9-3.5h1v1h.1c.6-.6 1.3-1.1 2.3-1.1 1.4 0 2.1.9 2.1 2.7V31h-1.2v-4.2c0-1.3-.4-1.8-1.3-1.8s-1.2.4-1.9 1v4.9h-1.2v-6.8zm7.3 5.1c0-1.5 1.3-2.2 4.2-2.5 0-.9-.3-1.7-1.4-1.7s-1.5.4-2 .7l-.5-.8c.6-.4 1.6-.9 2.7-.9 1.7 0 2.4 1.1 2.4 2.8V31h-1v-.8h-.1c-.6.5-1.4 1-2.3 1s-2-.7-2-1.9zm4.1.1v-1.9c-2.3.3-3.1.8-3.1 1.7s.5 1.1 1.2 1.1 1.2-.3 1.9-.9zm3.3-.4v-3.8h-1v-.9h1.1l.1-2h1v1.9h1.8v.9h-1.8v3.8c0 .8.3 1.3 1.1 1.3s.6 0 .8-.2l.2.9c-.4.1-.8.3-1.3.3-1.4 0-1.9-.9-1.9-2.3zm3.9-1.3c0-2.2 1.5-3.6 3.1-3.6s2.7 1.2 2.7 3.2v.7h-4.6c0 1.4 1 2.4 2.3 2.4s1.2-.2 1.7-.5l.4.8c-.6.4-1.3.7-2.2.7-1.8 0-3.3-1.3-3.3-3.6zm4.7-.6c0-1.4-.6-2.1-1.7-2.1s-1.8.8-2 2.1h3.6zm5.7 1.9v-3.8h-1v-.9H67l.1-2h1v1.9h1.8v.9h-1.8v3.8c0 .8.3 1.3 1.1 1.3s.6 0 .8-.2l.2.9c-.4.1-.8.3-1.3.3-1.4 0-1.9-.9-1.9-2.3zm3.9-1.3c0-2.3 1.5-3.6 3.2-3.6s3.2 1.3 3.2 3.6-1.5 3.6-3.2 3.6-3.2-1.3-3.2-3.6zm5.1 0c0-1.6-.8-2.6-2-2.6s-2 1.1-2 2.6.8 2.6 2 2.6 2-1 2-2.6zm61-1.7c0-4.9 2.9-7.8 6.9-7.8s3.5.9 4.4 1.9l-1.1 1.3c-.8-.8-1.7-1.4-3.2-1.4-3 0-5 2.3-5 6.1s1.8 6.2 5 6.2 2.1-.3 2.7-.9v-3.9h-3.2v-1.6h4.9v6.3c-1 1-2.6 1.8-4.7 1.8-4 0-6.8-2.9-6.8-7.8zm18.3-7.6h2.2l5.1 15.1h-2l-2.6-8.4-1.5-5.1h0l-1.5 5.1-2.7 8.4h-2l5.1-15.1zm-2.4 9h6.9v1.5h-6.9v-1.5zm14-7.4h-4.6v-1.6h11.1v1.6h-4.6v13.5h-1.9V19.9zm9.4-1.6h8.7v1.6h-6.8v4.7h5.7v1.6h-5.7v5.5h7v1.6h-8.9V18.2z" fill="#fff"/><path d="M117.7 44.7h0-.3-1c-.4 0-.8-.1-1.2-.2-.3 0-.5-.2-.7-.3 0 0-.1 0-.2-.1-1-.6-1.9-1.4-2.4-2.5-.2-.3-.3-.7-.5-1l-4.1-8.2c-.5-1-.8-2.1-.8-3.3v-1.9c.1-.9.3-1.8.7-2.7l1.5-3.1 2.4-5v-.3c.2-.3.3-.6.5-.9.6-1.2 1.4-2.2 2.6-2.8.4-.1.8-.3 1.2-.4.2 0 .5 0 .7-.1h1.1.3 0 .1c.7.1 1.4.4 2.1.8.8.5 1.4 1.3 1.8 2.2l2 4.2 2.6 5.2c.5 1 .8 2 .9 3.1v.1h0v.2 1.2.1h0v.2.7c-.2.9-.5 1.8-.9 2.7l-2.1 4.2-2.5 4.9c-.2.4-.5.9-.8 1.2-.8.9-1.8 1.4-3 1.6zm5.4-16.4c0-.9-.2-1.8-.6-2.6l-2.9-5.9-1.5-3c-.4-.8-1.3-1-2-.5-.3.2-.5.5-.6.8l-2 4-2.3 4.6a5.42 5.42 0 0 0-.6 2.5 6.71 6.71 0 0 0 .6 2.8l4.4 8.9c.2.5.6.7 1.2.7s1-.3 1.3-.9l4.4-8.8c.4-.8.6-1.7.6-2.6z" fill="#bcbcbc"/><path d="M83.5 11.9h8.9.2c2 .4 3.5 1.4 4.6 3.1l1.4 2.7v.2a11.94 11.94 0 0 0-.8 1.6l-1.2 2.2-.3.6-1.1-2.1-1.4-2.9c-.4-.8-1-1.2-1.8-1.3h-1.5c-.2 0-.2 0-.2.2v16.5 7.6c0 .1 0 .2.2.2h1.3.7c.7-.2 1.1-.7 1.4-1.3.3-.7.7-1.3 1-2l1.5-3v.1c.2.3.3.6.5 1l1.4 2.7c.1.2.3.5.4.7l-1.3 2.6c-.9 1.7-2.3 2.8-4.2 3.2-.2 0-.4 0-.7.1h-8.9c-.9-.2-1.4-.8-1.6-1.6v-.7-.1c.2-1 1.1-1.6 2.1-1.6H86c.1 0 .2 0 .2-.2V16.3c0-.1 0-.2-.2-.2h-2a2.05 2.05 0 0 1-2-1.8c-.1-1 .5-2 1.5-2.3h.3z" fill="#007c0c"/><path d="M96.1 22.4l.3-.6 1.2-2.2a11.94 11.94 0 0 0 .8-1.6v-.2s0-.1.1-.2l1.3-2.5c.9-1.6 2.3-2.7 4.2-3.2h.4 9c.3 0 .6.2.9.4-1.2.6-2.1 1.6-2.6 2.8-.1.3-.3.6-.5.9h-6c-.6 0-1 .2-1.4.6-.1.2-.3.4-.4.6l-2.7 5v.2c-.3.5-.6 1-.8 1.6l-.6 1.2c-.2.5-.5.9-.6 1.4-.2.6-.2 1.3-.2 1.9 0 .5.1 1 .3 1.5l.6 1.2 1.2 2.3a.37.37 0 0 0 .3.4v.2l2.7 5.1c.4.8 1 1.1 1.9 1.1h5.9c.2.3.3.7.5 1 .5 1.1 1.3 1.9 2.4 2.5 0 0 .1 0 .2.1-.2.2-.5.3-.7.4-.1 0-.2 0-.4.1h-8.6c-1-.1-1.8-.5-2.7-1s-1.6-1.2-2.1-2.1c-.4-.9-.9-1.7-1.3-2.5v-.2c0-.3-.2-.5-.4-.7l-1.4-2.7c-.2-.3-.3-.6-.5-1v-.1-.2c-.2-.4-.4-.9-.7-1.3-.6-1.2-1-2.5-1.1-3.9 0-1.2 0-2.4.4-3.6.2-.7.6-1.3 1-2 .2-.3.4-.6.5-1z" fill="#14901f"/><path d="M100.9 22.5c.7 1.3 1.3 2.6 1.6 4 .4 2 .1 3.8-.7 5.7l-.9 1.9c-.2 0-.2-.2-.3-.4l-1.2-2.3-.6-1.2c-.2-.5-.3-1-.3-1.5 0-.6 0-1.3.2-1.9.1-.5.4-1 .6-1.4l.6-1.2c.3-.5.6-1 .8-1.6z" fill="#007c0c"/></svg>