<svg xmlns="http://www.w3.org/2000/svg" viewBox="0 0 192 84" xmlns:v="https://vecta.io/nano"><path d="M100.5 39.9c0-8.5 5.1-13.7 12.1-13.7s6.1 1.7 7.6 3.2l-1.8 2.2c-1.3-1.4-3-2.5-5.7-2.5-5.3 0-8.7 4.1-8.7 10.6s3.1 10.8 8.8 10.8 3.7-.6 4.7-1.5v-6.9h-5.6v-2.8h8.6v11.1c-1.7 1.8-4.6 3.1-8.1 3.1-6.9 0-11.9-5.1-11.9-13.6zm32-13.2h3.8l8.9 26.3h-3.5l-4.6-14.7-2.6-8.9h-.2l-2.6 8.9-4.6 14.7h-3.4l8.9-26.3zm-4.3 15.6h12.1V45h-12.1v-2.7zm24.4-12.8h-8v-2.8h19.3v2.8h-8V53h-3.4V29.5zm16.4-2.8h15.2v2.8h-11.8v8.3h10v2.8h-10v9.6h12.2V53H169V26.7z" fill="#fff"/><path d="M70.8 73.7h-.1c-.2-.1-.4 0-.5 0h-2-.1c-.8 0-1.5-.2-2.2-.4-.5-.2-.9-.4-1.4-.5 0-.1-.2-.1-.3-.2-2-1.1-3.6-2.7-4.6-4.8-.3-.6-.6-1.3-1-1.9l-7.9-15.8c-1-2-1.5-4.1-1.6-6.3l.1-3.7c.2-1.8.7-3.5 1.4-5.1l3-6 4.7-9.5c0-.2.2-.3.2-.5.4-.5.6-1.2.9-1.7 1.1-2.3 2.7-4.2 5.1-5.4.7-.3 1.5-.6 2.2-.7.5 0 .9-.2 1.4-.2h2.1c.2 0 .4.1.5 0h.1c0 .2.2.1.3.1 1.4.2 2.8.7 4 1.5 1.6 1 2.7 2.5 3.5 4.2l3.9 8 4.9 10c.9 1.9 1.5 3.9 1.7 6 0 0 0 .2.1.2v.2.2 2.2.2.2c-.2 0-.1.2-.1.3 0 .4-.1.9-.2 1.3-.3 1.8-.9 3.5-1.8 5.2l-4 8.1-4.7 9.5c-.4.9-1 1.7-1.6 2.4-1.6 1.8-3.5 2.7-5.9 3 0 0-.2 0-.2.1zm10.3-31.5c0-1.8-.4-3.4-1.2-4.9l-5.7-11.4-2.9-5.9c-.8-1.5-2.6-1.9-3.9-1-.5.4-.9.9-1.2 1.5l-3.8 7.7-4.4 8.9c-.7 1.5-1.2 3.1-1.2 4.8 0 1.9.4 3.6 1.2 5.3l8.5 17c.5.9 1.2 1.3 2.2 1.4 1.2 0 2-.6 2.5-1.6l8.5-16.9c.8-1.6 1.2-3.3 1.2-5z" fill="#bcbcbc"/><path d="M4.9 10.6h17.2c.1.1.3 0 .4 0 3.8.7 6.8 2.7 8.8 6 1 1.7 1.8 3.4 2.6 5.2 0 .1 0 .3-.2.4-.5 1-1.1 2-1.6 3.1-.7 1.4-1.5 2.8-2.2 4.2-.2.4-.4.8-.6 1.1a74.55 74.55 0 0 1-2-4c-.9-1.8-1.8-3.7-2.8-5.5-.7-1.4-1.9-2.3-3.5-2.5-1-.1-2 0-2.9 0-.3 0-.4 0-.4.4v31.7 14.6c0 .3 0 .4.3.3h2.5c.4 0 .9 0 1.3-.2 1.3-.4 2.1-1.3 2.7-2.4.7-1.3 1.3-2.6 1.9-3.8l2.9-5.7c.1 0 .1.1.2.2.3.6.6 1.2 1 1.9l2.7 5.3c.2.5.5.9.7 1.4-.8 1.7-1.6 3.3-2.5 5-1.8 3.3-4.5 5.3-8.1 6.1-.4 0-.9 0-1.3.2H4.7h-.2c-1.6-.4-2.6-1.5-3.1-3.1v-.2V69c.1 0 0-.2.1-.3.5-1.9 2-3.2 4-3.2h3.7c.3 0 .4 0 .4-.3V18.9c0-.3 0-.3-.3-.3H5.5c-1.9 0-3.6-1.5-3.9-3.5s.9-3.9 2.8-4.4c.2 0 .3 0 .5-.2z" fill="#007c0c"/><path d="M29.2 30.7c.3-.3.4-.7.6-1.1l2.2-4.2 1.6-3.1a.76.76 0 0 1 .2-.4c.1 0 .1-.2.2-.3l2.5-4.7c1.8-3.2 4.5-5.2 8-6.1.2 0 .5 0 .7-.2h17.3.2c.7.1 1.2.4 1.7.9-2.4 1.1-4 3-5.1 5.4-.3.6-.5 1.2-.9 1.7H46.9a3.22 3.22 0 0 0-2.6 1.2c-.3.3-.5.7-.7 1.1l-5.2 9.7c0 .1-.1.2-.1.4-.1 0-.1 0-.2.2-.5 1-1.1 2-1.6 3-.4.8-.8 1.5-1.2 2.3a13.9 13.9 0 0 0-1.2 2.8c-.3 1.2-.3 2.4-.3 3.6 0 1 .2 2 .6 3 .3.8.7 1.5 1.1 2.3.8 1.5 1.5 3 2.3 4.4.1.3.2.6.5.7v.3l5.2 9.9c.8 1.5 2 2.2 3.6 2.2h11.4c.3.6.6 1.3 1 1.9 1 2.1 2.6 3.7 4.6 4.8.1 0 .2 0 .3.2-.4.4-.9.7-1.4.8-.2 0-.5.1-.7.2H45.8h-.1c-1.9-.2-3.6-1-5.1-2-1.7-1-3.1-2.3-4-4.1l-2.5-4.9c0-.1 0-.2-.2-.3-.2-.5-.5-.9-.7-1.4l-2.7-5.3c-.3-.6-.6-1.2-1-1.9 0 0 0-.2-.2-.2 0-.1 0-.2-.1-.3-.4-.8-.8-1.6-1.3-2.5-1.2-2.3-2-4.8-2.2-7.4-.2-2.4 0-4.7.8-6.9.5-1.4 1.2-2.6 1.8-3.8.3-.6.7-1.2 1-1.9z" fill="#14901f"/><path d="M38.3,31c1.3,2.5,2.5,5,3,7.8.7,3.8.2,7.4-1.3,10.9-.5,1.2-1.2,2.4-1.8,3.6-.3-.1-.4-.5-.5-.7-.8-1.5-1.5-3-2.3-4.4-.4-.7-.8-1.5-1.1-2.3-.4-1-.6-2-.6-3,0-1.2,0-2.4.3-3.6.3-1,.7-1.9,1.2-2.8.4-.8.8-1.5,1.2-2.3.5-1,1.1-2,1.6-3,0,0,0-.2.2-.2Z" fill="#007c0c"/></svg>