<?xml version="1.0" encoding="UTF-8"?>
<svg xmlns="http://www.w3.org/2000/svg" version="1.1" viewBox="0 0 192 84">
  <defs>
    <style>
      .cls-1 {
        fill: #fff;
      }

      .cls-2 {
        fill: #14901f;
      }

      .cls-3 {
        fill: #007c0c;
      }

      .cls-4 {
        fill: #bcbcbc;
      }
    </style>
  </defs>
  <!-- Generator: Adobe Illustrator 28.6.0, SVG Export Plug-In . SVG Version: 1.2.0 Build 709)  -->
  <g>
    <g id="Layer_1">
      <g>
        <path class="cls-1" d="M100.5,39.9c0-8.5,5.1-13.7,12.1-13.7s6.1,1.7,7.6,3.2l-1.8,2.2c-1.3-1.4-3-2.5-5.7-2.5-5.3,0-8.7,4.1-8.7,10.6s3.1,10.8,8.8,10.8,3.7-.6,4.7-1.5v-6.9h-5.6v-2.8h8.6v11.1c-1.7,1.8-4.6,3.1-8.1,3.1-6.9,0-11.9-5.1-11.9-13.6Z"/>
        <path class="cls-1" d="M132.5,26.7h3.8l8.9,26.3h-3.5l-4.6-14.7c-.9-2.9-1.8-5.8-2.6-8.9h-.2c-.8,3.1-1.7,5.9-2.6,8.9l-4.6,14.7h-3.4l8.9-26.3ZM128.2,42.3h12.1v2.7h-12.1v-2.7Z"/>
        <path class="cls-1" d="M152.6,29.5h-8v-2.8h19.3v2.8h-8v23.5h-3.4v-23.5Z"/>
        <path class="cls-1" d="M169,26.7h15.2v2.8h-11.8v8.3h10v2.8h-10v9.6h12.2v2.8h-15.6v-26.3Z"/>
      </g>
      <g>
        <path class="cls-4" d="M70.8,73.7h-.1c-.2-.1-.4,0-.5,0h-2s0,0-.1,0c-.8,0-1.5-.2-2.2-.4-.5-.2-.9-.4-1.4-.5,0-.1-.2-.1-.3-.2-2-1.1-3.6-2.7-4.6-4.8-.3-.6-.6-1.3-1-1.9-2.6-5.3-5.3-10.5-7.9-15.8-1-2-1.5-4.1-1.6-6.3,0-1.2,0-2.5.1-3.7.2-1.8.7-3.5,1.4-5.1,1-2,2-4,3-6,1.6-3.2,3.1-6.4,4.7-9.5,0-.2.2-.3.2-.5.4-.5.6-1.2.9-1.7,1.1-2.3,2.7-4.2,5.1-5.4.7-.3,1.5-.6,2.2-.7.5,0,.9-.2,1.4-.2.7,0,1.4,0,2.1,0,.2,0,.4.1.5,0h.1c0,.2.2.1.3.1,1.4.2,2.8.7,4,1.5,1.6,1,2.7,2.5,3.5,4.2,1.3,2.7,2.6,5.3,3.9,8,1.6,3.3,3.3,6.7,4.9,10,.9,1.9,1.5,3.9,1.7,6,0,0,0,.2.1.2v.2c0,0,0,.1,0,.2,0,.7,0,1.5,0,2.2,0,0,0,.2,0,.2v.2c-.2,0-.1.2-.1.3,0,.4-.1.9-.2,1.3-.3,1.8-.9,3.5-1.8,5.2-1.3,2.7-2.7,5.4-4,8.1-1.6,3.2-3.1,6.3-4.7,9.5-.4.9-1,1.7-1.6,2.4-1.6,1.8-3.5,2.7-5.9,3,0,0-.2,0-.2.1ZM81.1,42.2c0-1.8-.4-3.4-1.2-4.9-1.9-3.8-3.8-7.6-5.7-11.4-1-2-1.9-3.9-2.9-5.9-.8-1.5-2.6-1.9-3.9-1-.5.4-.9.9-1.2,1.5-1.3,2.6-2.5,5.1-3.8,7.7-1.5,3-2.9,5.9-4.4,8.9-.7,1.5-1.2,3.1-1.2,4.8,0,1.9.4,3.6,1.2,5.3,2.8,5.7,5.7,11.4,8.5,17,.5.9,1.2,1.3,2.2,1.4,1.2,0,2-.6,2.5-1.6,2.8-5.6,5.7-11.2,8.5-16.9.8-1.6,1.2-3.3,1.2-5Z"/>
        <path class="cls-3" d="M4.9,10.6h17.2c.1.1.3,0,.4,0,3.8.7,6.8,2.7,8.8,6,1,1.7,1.8,3.4,2.6,5.2,0,.1,0,.3-.2.4-.5,1-1.1,2-1.6,3.1-.7,1.4-1.5,2.8-2.2,4.2-.2.4-.4.8-.6,1.1-.7-1.3-1.4-2.7-2-4-.9-1.8-1.8-3.7-2.8-5.5-.7-1.4-1.9-2.3-3.5-2.5-1-.1-2,0-2.9,0-.3,0-.4,0-.4.4,0,10.6,0,21.1,0,31.7s0,9.7,0,14.6c0,.3,0,.4.3.3.8,0,1.6,0,2.5,0,.4,0,.9,0,1.3-.2,1.3-.4,2.1-1.3,2.7-2.4.7-1.3,1.3-2.6,1.9-3.8,1-1.9,1.9-3.8,2.9-5.7.1,0,.1.1.2.2.3.6.6,1.2,1,1.9.9,1.8,1.8,3.5,2.7,5.3.2.5.5.9.7,1.4-.8,1.7-1.6,3.3-2.5,5-1.8,3.3-4.5,5.3-8.1,6.1-.4,0-.9,0-1.3.2H4.7c0,0-.1,0-.2,0-1.6-.4-2.6-1.5-3.1-3.1,0,0,0-.1,0-.2v-1.3c.1,0,0-.2.1-.3.5-1.9,2-3.2,4-3.2,1.2,0,2.5,0,3.7,0,.3,0,.4,0,.4-.3,0-15.4,0-30.9,0-46.3,0-.3,0-.3-.3-.3-1.3,0-2.5,0-3.8,0-1.9,0-3.6-1.5-3.9-3.5-.3-2,.9-3.9,2.8-4.4.2,0,.3,0,.5-.2Z"/>
        <path class="cls-2" d="M29.2,30.7c.3-.3.4-.7.6-1.1.8-1.4,1.5-2.8,2.2-4.2.5-1,1.1-2,1.6-3.1,0-.1.1-.3.2-.4.1,0,.1-.2.2-.3.8-1.6,1.6-3.2,2.5-4.7,1.8-3.2,4.5-5.2,8-6.1.2,0,.5,0,.7-.2h17.3c0,0,.1,0,.2,0,.7.1,1.2.4,1.7.9-2.4,1.1-4,3-5.1,5.4-.3.6-.5,1.2-.9,1.7-3.8,0-7.7,0-11.5,0-1.1,0-1.9.4-2.6,1.2-.3.3-.5.7-.7,1.1-1.7,3.2-3.5,6.4-5.2,9.7,0,.1-.1.2-.1.4-.1,0-.1,0-.2.2-.5,1-1.1,2-1.6,3-.4.8-.8,1.5-1.2,2.3-.5.9-.9,1.8-1.2,2.8-.3,1.2-.3,2.4-.3,3.6,0,1,.2,2,.6,3,.3.8.7,1.5,1.1,2.3.8,1.5,1.5,3,2.3,4.4.1.3.2.6.5.7,0,.1,0,.2,0,.3,1.7,3.3,3.4,6.6,5.2,9.9.8,1.5,2,2.2,3.6,2.2,3.8,0,7.6,0,11.4,0,.3.6.6,1.3,1,1.9,1,2.1,2.6,3.7,4.6,4.8.1,0,.2,0,.3.2-.4.4-.9.7-1.4.8-.2,0-.5.1-.7.2h-16.5s0,0-.1,0c-1.9-.2-3.6-1-5.1-2-1.7-1-3.1-2.3-4-4.1-.8-1.6-1.7-3.3-2.5-4.9,0-.1,0-.2-.2-.3-.2-.5-.5-.9-.7-1.4-.9-1.8-1.8-3.5-2.7-5.3-.3-.6-.6-1.2-1-1.9,0,0,0-.2-.2-.2,0-.1,0-.2-.1-.3-.4-.8-.8-1.6-1.3-2.5-1.2-2.3-2-4.8-2.2-7.4-.2-2.4,0-4.7.8-6.9.5-1.4,1.2-2.6,1.8-3.8.3-.6.7-1.2,1-1.9Z"/>
        <path class="cls-3" d="M38.3,31c1.3,2.5,2.5,5,3,7.8.7,3.8.2,7.4-1.3,10.9-.5,1.2-1.2,2.4-1.8,3.6-.3-.1-.4-.5-.5-.7-.8-1.5-1.5-3-2.3-4.4-.4-.7-.8-1.5-1.1-2.3-.4-1-.6-2-.6-3,0-1.2,0-2.4.3-3.6.3-1,.7-1.9,1.2-2.8.4-.8.8-1.5,1.2-2.3.5-1,1.1-2,1.6-3,0,0,0-.2.2-.2Z"/>
      </g>
    </g>
  </g>
</svg>