<?xml version="1.0" encoding="UTF-8"?>
<svg xmlns="http://www.w3.org/2000/svg" version="1.1" viewBox="0 0 209 57">
  <defs>
    <style>
      .cls-1 {
        fill: #fff;
      }

      .cls-2 {
        fill: #0bce4c;
      }

      .cls-3 {
        fill: #0f3b21;
      }

      .cls-4 {
        fill: #16723b;
      }

      .cls-5 {
        fill: #c6c6c6;
      }
    </style>
  </defs>
  <!-- Generator: Adobe Illustrator 28.6.0, SVG Export Plug-In . SVG Version: 1.2.0 Build 709)  -->
  <g>
    <g id="Layer_1">
      <rect class="cls-3" y="0" width="209" height="57" rx="4" ry="4"/>
      <path class="cls-1" d="M22.2,22.3c.8-.1,1.6-.2,2.4-.2,1.2,0,2.1.3,2.7.8.5.5.8,1.2.8,2.1s-.3,1.6-.7,2.2c-.7.7-1.7,1.1-3,1.1s-.7,0-1,0v4h-1.3v-10ZM23.5,27.2c.3,0,.6.1,1,.1,1.5,0,2.4-.8,2.4-2.2s-.9-2-2.3-2-1,0-1.2.1v3.9ZM33.3,32.3v-.9h-.1c-.4.6-1.1,1.1-2.1,1.1-1.4,0-2.1-1-2.1-2.1,0-1.8,1.5-2.7,4.2-2.7h0c0-.8-.2-1.8-1.6-1.8s-1.3.2-1.8.5l-.3-.9c.6-.4,1.4-.6,2.3-.6,2.1,0,2.7,1.5,2.7,3v2.7c0,.6,0,1.2.1,1.7h-1.2ZM33.1,28.6c-1.4,0-3,.2-3,1.6s.5,1.3,1.2,1.3,1.5-.6,1.7-1.2c0-.1,0-.3,0-.4v-1.3ZM37,25l1.5,4.3c.2.5.3,1,.4,1.5h0c.1-.4.3-1,.4-1.5l1.4-4.3h1.3l-1.9,5.2c-.9,2.5-1.5,3.8-2.4,4.5-.6.6-1.2.8-1.6.9l-.3-1.1c.4-.1.8-.4,1.1-.6.3-.3.8-.8,1.1-1.5,0-.1.1-.2.1-.3s0-.2,0-.3l-2.6-6.7h1.4ZM48.3,25l.9,3.7c.2.8.4,1.6.5,2.3h0c.2-.7.4-1.5.6-2.3l1.1-3.7h1.1l1.1,3.6c.3.9.5,1.6.6,2.4h0c.1-.7.3-1.5.5-2.4l1-3.6h1.3l-2.2,7.3h-1.2l-1.1-3.5c-.2-.8-.5-1.6-.6-2.4h0c-.2.8-.4,1.6-.6,2.4l-1.1,3.5h-1.2l-2.1-7.3s1.3,0,1.3,0ZM59.5,23c0,.5-.3.8-.8.8s-.8-.4-.8-.8.3-.8.8-.8.8.4.8.8ZM58.1,32.3v-7.3h1.3v7.3h-1.3ZM62.5,22.9v2.1h1.8v1h-1.8v3.9c0,.9.2,1.4,1,1.4s.6,0,.7,0v1c-.2.1-.6.2-1.1.2s-1.1-.2-1.4-.6c-.4-.4-.5-1-.5-1.9v-4h-1.1v-1h1.1v-1.7s1.2-.3,1.2-.3ZM66,21.6h1.3v4.5h0c.2-.4.5-.7.9-.9.4-.2.8-.4,1.3-.4.9,0,2.4.6,2.4,3.1v4.3h-1.3v-4.2c0-1.2-.4-2.2-1.6-2.2s-1.5.6-1.7,1.3c0,.2,0,.4,0,.6v4.4h-1.3s0-10.6,0-10.7Z"/>
      <g>
        <path class="cls-5" d="M155.9,16.5c2.4,0,4.9,0,7.3,0,.5,0,.7.1.7.7,0,1.6,0,3.1,0,4.7,0,.6-.2.7-.7.6-.8,0-1.7,0-2.6,0-.5,0-.7,0-.7-.7,0-1.4,0-1.4-1.4-1.3-3.5,0-7-.1-10.5.1-.8,0-1.6.2-2.4.4-4.5,1.3-5.9,4.7-5.2,9,.5,3.4,2.8,5.3,6.4,5.9,1.2.2,2.5.2,3.7.2,4.1,0,8.3,0,12.4,0,.7,0,.9.2.9.9,0,.8,0,1.7,0,2.5,0,.4-.1.5-.5.5-5.4,0-10.8.2-16.2-.2-1.5-.1-3-.5-4.5-1-4-1.6-5.9-4.8-6.3-9-.2-1.8,0-3.7.4-5.5,1.1-4.2,4-6.5,8.1-7.4,1.6-.4,3.2-.5,4.8-.5,2,0,4.1,0,6.1,0Z"/>
        <g>
          <path class="cls-5" d="M180.8,16.5c2.1,0,4.2.2,6.2.8,4.6,1.4,7.2,4.7,7.5,9.5.1,1.8,0,3.6-.4,5.3-1,3.7-3.4,6.1-7,7.1-4.1,1.2-8.3,1.2-12.4,0-4.6-1.3-7.2-4.6-7.6-9.4-.1-1.8,0-3.6.4-5.4,1.1-4.3,4.1-6.5,8.2-7.4,1.7-.4,3.4-.5,5.1-.5ZM181,36.1c.9,0,2,0,3.1-.2,3.8-.6,6-2.7,6.4-6.2.5-4.3-1-7.8-5.9-8.8-2.7-.6-5.5-.6-8.2.1-2.9.8-4.9,2.6-5.4,5.7-.1.9-.1,1.8,0,2.7.2,2.8,1.6,4.8,4.2,5.9,1.8.7,3.7.9,5.8.9Z"/>
          <path class="cls-5" d="M181,30.3c-2,0-4,0-5.9,0-.7,0-.8-.2-.8-.8,0-.8,0-1.7,0-2.5,0-.4,0-.6.6-.6,4.1,0,8.3,0,12.4,0,.4,0,.5.1.5.5,0,.9,0,1.8,0,2.7,0,.6-.1.8-.7.8-2,0-4,0-6,0Z"/>
        </g>
        <path class="cls-5" d="M84.5,28.4c0-6.3,0-12.5,0-18.8,0-.6.1-.8.8-.8,9.9,0,19.9,0,29.8,0,11.6,0,20.5,10.1,19.2,21.7-1.2,10-9.5,17.4-19.5,17.4-9.8,0-19.6,0-29.4,0-.7,0-.9-.2-.9-.9,0-6.2,0-12.5,0-18.7ZM88.6,13.8c-.3.3-.2.6-.2.9,0,9.2,0,18.4,0,27.7,0,.3-.1.6.2.9-.1.7.3.9.9.9,8.4,0,16.8,0,25.2,0,.9,0,1.8,0,2.7-.1,3.2-.4,6-1.7,8.4-3.9,4.3-4.1,5.4-9.3,4.4-14.9-.5-3.3-2.2-6-4.7-8.3-2.6-2.4-5.7-3.7-9.2-3.8-9-.1-17.9,0-26.9,0-.7,0-.9.2-.9.9Z"/>
        <path class="cls-3" d="M88.6,43.2c-.3-.3-.2-.6-.2-.9,0-9.2,0-18.4,0-27.7,0-.3-.1-.6.2-.9,8.1,0,16.2,0,24.3,0,1,0,1.9,0,2.9.2,2.6.4,5,1.4,7,3.2,4.5,4,5.7,9.1,4.6,14.8-.6,3.3-2.3,6-5,8.1-2.4,1.9-5.2,3.1-8.3,3.1-8.5,0-17,0-25.5,0ZM114.2,23.3c-.3-1.5-.8-2.9-1.9-4-.7-.7-1.6-1-2.7-.8-1.8.4-3.3,1.3-4.9,2-1.1.5-1.1.5-1.5-.5-.4-1-.4-1-1.4-.6-.6.3-.8.6-.4,1.1,0,0,0,0,0,0,0,.5.9.9.1,1.3-.8.4-.7-.5-1-.9-.1-.1-.2-.3-.3-.5-.1-.2-.2-.3-.5-.2-1.1.2-1.3.7-.8,1.7,0,.1,0,.2.2.3.4.5.1.7-.3.9-.8.4-1.6.8-2.5,1.1-.3.2-.6.3-.5.8.5,1.8.8,1.9,2.5,1.1,3.5-1.7,7.1-3.3,10.6-5,1-.5,1.8,0,2.3,1,.6,1.3.1,2-.7,2.4-.9.5-2,.9-2.9,1.4-2.9,1.4-5.9,2.7-8.8,4.1-.3.2-.6.3-.3.8,1.1,2.3,2.2,4.6,3.3,7,.2.4.4.4.8.2.7-.4,1.4-.7,2.2-1,1-.5,1-.5,1.5.6.2.6.5.8,1.2.5.8-.3,1-.6.5-1.4-.1-.2-.2-.4-.3-.5-.2-.3-.1-.5.2-.7.3-.1.5,0,.7.3.2.3.3.7.5,1,0,.2.1.4.3.3.5-.2,1-.3,1.3-.6.3-.3,0-.7-.2-1,0-.1,0-.2-.2-.3-.3-.5-.2-.7.4-1,1.5-.7,3-1.3,4.4-2.1,1.5-.9,2.1-2.3,1.7-3.7-.2-.8-.6-1.6-1-2.3-.4-.6-.9-1-1.6-1.2-.5-.1-.6-.3-.3-.7.2-.3.3-.6.2-1Z"/>
        <path class="cls-4" d="M88.6,43.2c8.5,0,17,0,25.5,0,3.1,0,5.9-1.2,8.3-3.1,2.7-2.1,4.4-4.8,5-8.1,1.1-5.7,0-10.8-4.6-14.8-2-1.8-4.4-2.7-7-3.2-1-.2-1.9-.2-2.9-.2-8.1,0-16.2,0-24.3,0,0-.7.2-.9.9-.9,9,0,17.9,0,26.9,0,3.5,0,6.6,1.4,9.2,3.8,2.5,2.2,4.1,5,4.7,8.3.9,5.7,0,10.8-4.4,14.9-2.3,2.2-5.1,3.6-8.4,3.9-.9.1-1.8.1-2.7.1-8.4,0-16.8,0-25.2,0-.7,0-1-.1-.9-.9Z"/>
        <path class="cls-2" d="M114.2,23.3c0,.4,0,.7-.2,1-.3.4-.2.6.3.7.7.2,1.2.6,1.6,1.2.5.7.8,1.5,1,2.3.4,1.5-.3,2.8-1.7,3.7-1.4.9-2.9,1.5-4.4,2.1-.6.3-.7.5-.4,1,0,0,.1.2.2.3.1.3.5.7.2,1-.3.3-.8.4-1.3.6-.2,0-.2-.2-.3-.3-.2-.3-.3-.7-.5-1-.1-.3-.4-.4-.7-.3-.3.2-.4.4-.2.7,0,.2.2.4.3.5.5.7.3,1-.5,1.4-.7.3-.9,0-1.2-.5-.4-1.1-.5-1.1-1.5-.6-.7.3-1.4.6-2.2,1-.4.2-.6.2-.8-.2-1.1-2.3-2.2-4.7-3.3-7-.2-.4,0-.6.3-.8,2.9-1.4,5.9-2.7,8.8-4.1,1-.5,2-.9,2.9-1.4.9-.5,1.3-1.1.7-2.4-.5-1.1-1.3-1.5-2.3-1-3.5,1.6-7.1,3.3-10.6,5-1.7.8-1.9.7-2.5-1.1-.1-.5.1-.6.5-.8.8-.4,1.6-.8,2.5-1.1.5-.2.7-.4.3-.9,0,0-.1-.2-.2-.3-.5-1-.3-1.4.8-1.7.2,0,.4,0,.5.2,0,.2.1.4.3.5.3.3.2,1.3,1,.9.8-.4-.1-.9-.1-1.3,0,0,0,0,0,0-.4-.6-.2-.9.4-1.1,1-.4,1-.5,1.4.6.4,1,.5,1,1.5.5,1.6-.7,3.2-1.6,4.9-2,1.1-.2,2,0,2.7.8,1,1.1,1.6,2.5,1.9,4ZM114.2,29c0-1.6-1.2-2.6-2.6-2.1-3.1,1.4-6.3,2.9-9.4,4.3-.4.2-.5.4-.3.8.4.8.7,1.5,1.1,2.3.2.5.5.5.9.3.5-.3,1-.5,1.5-.7,2.6-1.2,5.2-2.4,7.9-3.6.6-.3.9-.7.9-1.3Z"/>
        <path class="cls-3" d="M114.2,29c0,.6-.3,1.1-.9,1.3-2.6,1.2-5.2,2.4-7.9,3.6-.5.2-1,.5-1.5.7-.4.2-.7.2-.9-.3-.3-.8-.7-1.6-1.1-2.3-.2-.4,0-.6.3-.8,3.1-1.4,6.3-2.9,9.4-4.3,1.3-.6,2.6.5,2.6,2.1Z"/>
      </g>
    </g>
  </g>
</svg>