<?xml version="1.0" encoding="UTF-8"?>
<svg xmlns="http://www.w3.org/2000/svg" version="1.1" viewBox="0 0 209 57">
  <defs>
    <style>
      .cls-1 {
        fill: #fff;
      }

      .cls-2 {
        fill: #14901f;
      }

      .cls-3 {
        fill: #0f3b21;
      }

      .cls-4 {
        fill: #007c0c;
      }

      .cls-5 {
        display: none;
      }

      .cls-6 {
        fill: #bcbcbc;
      }
    </style>
  </defs>
  <!-- Generator: Adobe Illustrator 28.6.0, SVG Export Plug-In . SVG Version: 1.2.0 Build 709)  -->
  <g>
    <g id="Layer_1">
      <rect class="cls-3" width="209" height="57" rx="4" ry="4"/>
      <g class="cls-5">
        <path class="cls-1" d="M32.2,22.3c.8-.1,1.6-.2,2.4-.2,1.2,0,2.1.3,2.7.8.5.5.8,1.2.8,2.1s-.3,1.6-.7,2.2c-.7.7-1.7,1.1-3,1.1s-.7,0-1,0v4h-1.3v-10ZM33.5,27.2c.3,0,.6.1,1,.1,1.5,0,2.4-.8,2.4-2.2s-.9-2-2.3-2-1,0-1.2.1v3.9ZM43.3,32.3v-.9h-.1c-.4.6-1.1,1.1-2.1,1.1-1.4,0-2.1-1-2.1-2.1,0-1.8,1.5-2.7,4.2-2.7h0c0-.8-.2-1.8-1.6-1.8s-1.3.2-1.8.5l-.3-.9c.6-.4,1.4-.6,2.3-.6,2.1,0,2.7,1.5,2.7,3v2.7c0,.6,0,1.2.1,1.7h-1.2ZM43.1,28.6c-1.4,0-3,.2-3,1.6s.5,1.3,1.2,1.3,1.5-.6,1.7-1.2c0-.1,0-.3,0-.4v-1.3ZM47,25l1.5,4.3c.2.5.3,1,.4,1.5h0c.1-.4.3-1,.4-1.5l1.4-4.3h1.3l-1.9,5.2c-.9,2.5-1.5,3.8-2.4,4.5-.6.6-1.2.8-1.6.9l-.3-1.1c.4-.1.8-.4,1.1-.6.3-.3.8-.8,1.1-1.5,0-.1.1-.2.1-.3s0-.2,0-.3l-2.6-6.7h1.4ZM58.3,25l.9,3.7c.2.8.4,1.6.5,2.3h0c.2-.7.4-1.5.6-2.3l1.1-3.7h1.1l1.1,3.6c.3.9.5,1.6.6,2.4h0c.1-.7.3-1.5.5-2.4l1-3.6h1.3l-2.2,7.3h-1.2l-1.1-3.5c-.2-.8-.5-1.6-.6-2.4h0c-.2.8-.4,1.6-.6,2.4l-1.1,3.5h-1.2l-2.1-7.3s1.3,0,1.3,0ZM69.5,23c0,.5-.3.8-.8.8s-.8-.4-.8-.8.3-.8.8-.8.8.4.8.8ZM68.1,32.3v-7.3h1.3v7.3h-1.3ZM72.5,22.9v2.1h1.8v1h-1.8v3.9c0,.9.2,1.4,1,1.4s.6,0,.7,0v1c-.2.1-.6.2-1.1.2s-1.1-.2-1.4-.6c-.4-.4-.5-1-.5-1.9v-4h-1.1v-1h1.1v-1.7l1.2-.3ZM76,21.6h1.3v4.5h0c.2-.4.5-.7.9-.9.4-.2.8-.4,1.3-.4.9,0,2.4.6,2.4,3.1v4.3h-1.3v-4.2c0-1.2-.4-2.2-1.6-2.2s-1.5.6-1.7,1.3c0,.2,0,.4,0,.6v4.4h-1.3s0-10.6,0-10.7Z"/>
      </g>
      <g>
        <path class="cls-1" d="M22,20.6h3c2.4,0,3.9.8,3.9,3.1s-1.6,3.2-3.9,3.2h-1.7v4.2h-1.3v-10.5ZM24.9,25.8c1.8,0,2.7-.7,2.7-2.2s-.9-2-2.8-2h-1.5v4.2h1.6Z"/>
        <path class="cls-1" d="M29.8,29.1c0-1.7,1.5-2.5,4.8-2.9,0-1-.3-2-1.6-2s-1.7.4-2.3.8l-.5-.9c.7-.5,1.8-1,3.1-1,1.9,0,2.7,1.3,2.7,3.2v4.8h-1.1v-.9h-.2c-.7.6-1.6,1.1-2.6,1.1s-2.3-.8-2.3-2.2ZM34.6,29.2v-2.2c-2.6.3-3.5,1-3.5,1.9s.6,1.2,1.4,1.2,1.4-.4,2.1-1Z"/>
        <path class="cls-1" d="M37.5,34.3l.3-1c.2,0,.4.1.6.1.9,0,1.4-.7,1.8-1.7l.2-.6-3.1-7.8h1.4l1.6,4.3c.2.7.5,1.5.8,2.2h0c.2-.7.4-1.5.7-2.2l1.4-4.3h1.3l-2.9,8.4c-.5,1.5-1.4,2.7-2.9,2.7s-.7,0-.9-.2Z"/>
        <path class="cls-1" d="M48.1,23.3h1.3l1.2,4.5c.2.7.3,1.4.5,2.2h0c.2-.7.3-1.4.5-2.2l1.2-4.5h1.3l1.2,4.5c.2.7.4,1.4.5,2.2h0c.2-.7.3-1.4.5-2.2l1.1-4.5h1.3l-2.1,7.8h-1.6l-1.1-4.2c-.2-.7-.3-1.5-.5-2.2h0c-.2.8-.3,1.5-.5,2.3l-1.1,4.2h-1.5l-2.2-7.8Z"/>
        <path class="cls-1" d="M60.2,20.9c0-.5.4-.9.9-.9s.9.3.9.9-.4.9-.9.9-.9-.4-.9-.9ZM60.5,23.3h1.3v7.8h-1.3v-7.8Z"/>
        <path class="cls-1" d="M64.7,28.7v-4.3h-1.2v-1h1.2c0,0,.2-2.3.2-2.3h1.1v2.2h2.1v1.1h-2.1v4.3c0,1,.3,1.5,1.2,1.5s.6-.1.9-.2l.3,1c-.4.1-1,.3-1.4.3-1.7,0-2.2-1-2.2-2.6Z"/>
        <path class="cls-1" d="M69.8,19.7h1.3v4.7c.7-.7,1.5-1.3,2.5-1.3,1.6,0,2.4,1.1,2.4,3v4.9h-1.3v-4.8c0-1.4-.4-2.1-1.5-2.1s-1.3.4-2.1,1.2v5.6h-1.3v-11.4Z"/>
      </g>
      <g>
        <path class="cls-1" d="M137,25.4c0-5.1,3.1-8.2,7.2-8.2s3.6,1,4.5,1.9l-1.1,1.3c-.8-.8-1.8-1.5-3.4-1.5-3.2,0-5.2,2.4-5.2,6.4s1.9,6.4,5.2,6.4,2.2-.3,2.8-.9v-4.1h-3.3v-1.7h5.2v6.6c-1,1.1-2.7,1.8-4.9,1.8-4.2,0-7.1-3-7.1-8.2Z"/>
        <path class="cls-1" d="M156.1,17.5h2.3l5.3,15.8h-2.1l-2.7-8.8c-.6-1.8-1.1-3.5-1.6-5.3h0c-.5,1.8-1,3.5-1.6,5.3l-2.8,8.8h-2l5.3-15.8ZM153.6,26.9h7.3v1.6h-7.3v-1.6Z"/>
        <path class="cls-1" d="M168.1,19.2h-4.8v-1.7h11.5v1.7h-4.8v14.1h-2v-14.1Z"/>
        <path class="cls-1" d="M177.9,17.5h9.1v1.7h-7.1v4.9h6v1.7h-6v5.7h7.3v1.7h-9.3v-15.8Z"/>
      </g>
      <g>
        <path class="cls-6" d="M117.7,44.7h0c0,0-.2,0-.3,0h-1s0,0,0,0c-.4,0-.8-.1-1.2-.2-.3,0-.5-.2-.7-.3,0,0-.1,0-.2-.1-1-.6-1.9-1.4-2.4-2.5-.2-.3-.3-.7-.5-1-1.4-2.7-2.7-5.5-4.1-8.2-.5-1-.8-2.1-.8-3.3,0-.6,0-1.3,0-1.9.1-.9.3-1.8.7-2.7.5-1,1-2.1,1.5-3.1.8-1.7,1.6-3.3,2.4-5,0,0,0-.2,0-.3.2-.3.3-.6.5-.9.6-1.2,1.4-2.2,2.6-2.8.4-.1.8-.3,1.2-.4.2,0,.5,0,.7-.1.4,0,.7,0,1.1,0,0,0,.2,0,.3,0h0c0,0,0,0,.1,0,.7.1,1.4.4,2.1.8.8.5,1.4,1.3,1.8,2.2.7,1.4,1.4,2.8,2,4.2.9,1.7,1.7,3.5,2.6,5.2.5,1,.8,2,.9,3.1,0,0,0,.1,0,.1h0c0,.1,0,.2,0,.2,0,.4,0,.8,0,1.2,0,0,0,0,0,.1h0c0,.1,0,.2,0,.2,0,.2,0,.5,0,.7-.2.9-.5,1.8-.9,2.7-.7,1.4-1.4,2.8-2.1,4.2-.8,1.6-1.6,3.3-2.5,4.9-.2.4-.5.9-.8,1.2-.8.9-1.8,1.4-3,1.6,0,0,0,0,0,0ZM123.1,28.3c0-.9-.2-1.8-.6-2.6-1-2-2-3.9-2.9-5.9-.5-1-1-2-1.5-3-.4-.8-1.3-1-2-.5-.3.2-.5.5-.6.8-.7,1.3-1.3,2.7-2,4-.8,1.5-1.5,3.1-2.3,4.6-.4.8-.6,1.6-.6,2.5,0,1,.2,1.9.6,2.8,1.5,3,3,5.9,4.4,8.9.2.5.6.7,1.2.7.6,0,1-.3,1.3-.9,1.5-2.9,2.9-5.8,4.4-8.8.4-.8.6-1.7.6-2.6Z"/>
        <path class="cls-4" d="M83.5,11.9h8.9c0,0,.1,0,.2,0,2,.4,3.5,1.4,4.6,3.1.5.9.9,1.8,1.4,2.7,0,0,0,.1,0,.2-.3.5-.6,1.1-.8,1.6-.4.7-.8,1.5-1.2,2.2-.1.2-.2.4-.3.6-.4-.7-.7-1.4-1.1-2.1-.5-1-1-1.9-1.4-2.9-.4-.8-1-1.2-1.8-1.3-.5,0-1,0-1.5,0-.2,0-.2,0-.2.2,0,5.5,0,11,0,16.5s0,5.1,0,7.6c0,.1,0,.2.2.2.4,0,.9,0,1.3,0,.2,0,.5,0,.7,0,.7-.2,1.1-.7,1.4-1.3.3-.7.7-1.3,1-2,.5-1,1-2,1.5-3,0,0,0,0,0,.1.2.3.3.6.5,1,.5.9.9,1.8,1.4,2.7.1.2.3.5.4.7-.4.9-.8,1.7-1.3,2.6-.9,1.7-2.3,2.8-4.2,3.2-.2,0-.4,0-.7.1h-8.9s0,0,0,0c-.9-.2-1.4-.8-1.6-1.6,0,0,0,0,0,0v-.7c0,0,0,0,0-.1.2-1,1.1-1.6,2.1-1.6.6,0,1.3,0,1.9,0,.1,0,.2,0,.2-.2,0-8,0-16,0-24.1,0-.1,0-.2-.2-.2-.7,0-1.3,0-2,0-1,0-1.9-.8-2-1.8-.1-1,.5-2,1.5-2.3,0,0,.2,0,.3,0Z"/>
        <path class="cls-2" d="M96.1,22.4c.1-.2.2-.4.3-.6.4-.7.8-1.5,1.2-2.2.3-.5.6-1.1.8-1.6,0,0,0-.1,0-.2,0,0,0-.1.1-.2.4-.8.8-1.7,1.3-2.5.9-1.6,2.3-2.7,4.2-3.2.1,0,.2,0,.4,0h9s0,0,0,0c.3,0,.6.2.9.4-1.2.6-2.1,1.6-2.6,2.8-.1.3-.3.6-.5.9-2,0-4,0-6,0-.6,0-1,.2-1.4.6-.1.2-.3.4-.4.6-.9,1.7-1.8,3.4-2.7,5,0,0,0,.1,0,.2,0,0,0,0,0,0-.3.5-.6,1-.8,1.6-.2.4-.4.8-.6,1.2-.2.5-.5.9-.6,1.4-.2.6-.2,1.3-.2,1.9,0,.5.1,1,.3,1.5.2.4.4.8.6,1.2.4.8.8,1.5,1.2,2.3,0,.1,0,.3.3.4,0,0,0,.1,0,.2.9,1.7,1.8,3.4,2.7,5.1.4.8,1,1.1,1.9,1.1,2,0,3.9,0,5.9,0,.2.3.3.7.5,1,.5,1.1,1.3,1.9,2.4,2.5,0,0,.1,0,.2.1-.2.2-.5.3-.7.4-.1,0-.2,0-.4.1h-8.6s0,0,0,0c-1-.1-1.8-.5-2.7-1-.9-.5-1.6-1.2-2.1-2.1-.4-.9-.9-1.7-1.3-2.5,0,0,0-.1,0-.2,0-.3-.2-.5-.4-.7-.5-.9-.9-1.8-1.4-2.7-.2-.3-.3-.6-.5-1,0,0,0,0,0-.1,0,0,0-.1,0-.2-.2-.4-.4-.9-.7-1.3-.6-1.2-1-2.5-1.1-3.9,0-1.2,0-2.4.4-3.6.2-.7.6-1.3,1-2,.2-.3.4-.6.5-1Z"/>
        <path class="cls-4" d="M100.9,22.5c.7,1.3,1.3,2.6,1.6,4,.4,2,.1,3.8-.7,5.7-.3.6-.6,1.3-.9,1.9-.2,0-.2-.2-.3-.4-.4-.8-.8-1.5-1.2-2.3-.2-.4-.4-.8-.6-1.2-.2-.5-.3-1-.3-1.5,0-.6,0-1.3.2-1.9.1-.5.4-1,.6-1.4.2-.4.4-.8.6-1.2.3-.5.6-1,.8-1.6,0,0,0,0,0,0Z"/>
      </g>
    </g>
  </g>
</svg>