<svg xmlns="http://www.w3.org/2000/svg" viewBox="0 0 209 57" xmlns:v="https://vecta.io/nano"><rect width="209" height="57" rx="4" fill="#0f3b21"/><path d="M22 20.6h3c2.4 0 3.9.8 3.9 3.1s-1.6 3.2-3.9 3.2h-1.7v4.2H22V20.6zm2.9 5.2c1.8 0 2.7-.7 2.7-2.2s-.9-2-2.8-2h-1.5v4.2h1.6zm4.9 3.3c0-1.7 1.5-2.5 4.8-2.9 0-1-.3-2-1.6-2s-1.7.4-2.3.8l-.5-.9c.7-.5 1.8-1 3.1-1 1.9 0 2.7 1.3 2.7 3.2v4.8h-1.1v-.9h-.2c-.7.6-1.6 1.1-2.6 1.1s-2.3-.8-2.3-2.2zm4.8.1V27c-2.6.3-3.5 1-3.5 1.9s.6 1.2 1.4 1.2 1.4-.4 2.1-1zm2.9 5.1l.3-1c.2 0 .4.1.6.1.9 0 1.4-.7 1.8-1.7l.2-.6-3.1-7.8h1.4l1.6 4.3c.2.7.5 1.5.8 2.2h0l.7-2.2 1.4-4.3h1.3l-2.9 8.4c-.5 1.5-1.4 2.7-2.9 2.7s-.7 0-.9-.2zm10.6-11h1.3l1.2 4.5c.2.7.3 1.4.5 2.2h0c.2-.7.3-1.4.5-2.2l1.2-4.5h1.3l1.2 4.5c.2.7.4 1.4.5 2.2h0c.2-.7.3-1.4.5-2.2l1.1-4.5h1.3l-2.1 7.8H55l-1.1-4.2c-.2-.7-.3-1.5-.5-2.2h0l-.5 2.3-1.1 4.2h-1.5l-2.2-7.8zm12.1-2.4c0-.5.4-.9.9-.9s.9.3.9.9-.4.9-.9.9-.9-.4-.9-.9zm.3 2.4h1.3v7.8h-1.3v-7.8zm4.2 5.4v-4.3h-1.2v-1h1.2l.2-2.3H66v2.2h2.1v1.1H66v4.3c0 1 .3 1.5 1.2 1.5s.6-.1.9-.2l.3 1c-.4.1-1 .3-1.4.3-1.7 0-2.2-1-2.2-2.6zm5.1-9h1.3v4.7c.7-.7 1.5-1.3 2.5-1.3 1.6 0 2.4 1.1 2.4 3V31h-1.3v-4.8c0-1.4-.4-2.1-1.5-2.1s-1.3.4-2.1 1.2v5.6h-1.3V19.5zm67.2 5.7c0-5.1 3.1-8.2 7.2-8.2s3.6 1 4.5 1.9l-1.1 1.3c-.8-.8-1.8-1.5-3.4-1.5-3.2 0-5.2 2.4-5.2 6.4s1.9 6.4 5.2 6.4 2.2-.3 2.8-.9v-4.1h-3.3V25h5.2v6.6c-1 1.1-2.7 1.8-4.9 1.8-4.2 0-7.1-3-7.1-8.2zm19.1-7.9h2.3l5.3 15.8h-2.1l-2.7-8.8-1.6-5.3h0l-1.6 5.3-2.8 8.8h-2l5.3-15.8zm-2.5 9.4h7.3v1.6h-7.3v-1.6zm14.5-7.7h-4.8v-1.7h11.5v1.7H170v14.1h-2V19.2zm9.8-1.7h9.1v1.7h-7.1v4.9h6v1.7h-6v5.7h7.3v1.7h-9.3V17.4z" fill="#fff"/><path d="M117.7 44.7h0-.3-1c-.4 0-.8-.1-1.2-.2-.3 0-.5-.2-.7-.3 0 0-.1 0-.2-.1-1-.6-1.9-1.4-2.4-2.5-.2-.3-.3-.7-.5-1l-4.1-8.2c-.5-1-.8-2.1-.8-3.3v-1.9c.1-.9.3-1.8.7-2.7l1.5-3.1 2.4-5v-.3c.2-.3.3-.6.5-.9.6-1.2 1.4-2.2 2.6-2.8.4-.1.8-.3 1.2-.4.2 0 .5 0 .7-.1h1.1.3 0 .1c.7.1 1.4.4 2.1.8.8.5 1.4 1.3 1.8 2.2l2 4.2 2.6 5.2c.5 1 .8 2 .9 3.1v.1h0v.2 1.2.1h0v.2.7c-.2.9-.5 1.8-.9 2.7l-2.1 4.2-2.5 4.9c-.2.4-.5.9-.8 1.2-.8.9-1.8 1.4-3 1.6zm5.4-16.4c0-.9-.2-1.8-.6-2.6l-2.9-5.9-1.5-3c-.4-.8-1.3-1-2-.5-.3.2-.5.5-.6.8l-2 4-2.3 4.6a5.42 5.42 0 0 0-.6 2.5 6.71 6.71 0 0 0 .6 2.8l4.4 8.9c.2.5.6.7 1.2.7s1-.3 1.3-.9l4.4-8.8c.4-.8.6-1.7.6-2.6z" fill="#bcbcbc"/><path d="M83.5 11.9h8.9.2c2 .4 3.5 1.4 4.6 3.1l1.4 2.7v.2a11.94 11.94 0 0 0-.8 1.6l-1.2 2.2-.3.6-1.1-2.1-1.4-2.9c-.4-.8-1-1.2-1.8-1.3h-1.5c-.2 0-.2 0-.2.2v16.5 7.6c0 .1 0 .2.2.2h1.3.7c.7-.2 1.1-.7 1.4-1.3.3-.7.7-1.3 1-2l1.5-3v.1c.2.3.3.6.5 1l1.4 2.7c.1.2.3.5.4.7l-1.3 2.6c-.9 1.7-2.3 2.8-4.2 3.2-.2 0-.4 0-.7.1h-8.9c-.9-.2-1.4-.8-1.6-1.6v-.7-.1c.2-1 1.1-1.6 2.1-1.6H86c.1 0 .2 0 .2-.2V16.3c0-.1 0-.2-.2-.2h-2a2.05 2.05 0 0 1-2-1.8c-.1-1 .5-2 1.5-2.3h.3z" fill="#007c0c"/><path d="M96.1 22.4l.3-.6 1.2-2.2a11.94 11.94 0 0 0 .8-1.6v-.2s0-.1.1-.2l1.3-2.5c.9-1.6 2.3-2.7 4.2-3.2h.4 9c.3 0 .6.2.9.4-1.2.6-2.1 1.6-2.6 2.8-.1.3-.3.6-.5.9h-6c-.6 0-1 .2-1.4.6-.1.2-.3.4-.4.6l-2.7 5v.2c-.3.5-.6 1-.8 1.6l-.6 1.2c-.2.5-.5.9-.6 1.4-.2.6-.2 1.3-.2 1.9 0 .5.1 1 .3 1.5l.6 1.2 1.2 2.3a.37.37 0 0 0 .3.4v.2l2.7 5.1c.4.8 1 1.1 1.9 1.1h5.9c.2.3.3.7.5 1 .5 1.1 1.3 1.9 2.4 2.5 0 0 .1 0 .2.1-.2.2-.5.3-.7.4-.1 0-.2 0-.4.1h-8.6c-1-.1-1.8-.5-2.7-1s-1.6-1.2-2.1-2.1c-.4-.9-.9-1.7-1.3-2.5v-.2c0-.3-.2-.5-.4-.7l-1.4-2.7c-.2-.3-.3-.6-.5-1v-.1-.2c-.2-.4-.4-.9-.7-1.3-.6-1.2-1-2.5-1.1-3.9 0-1.2 0-2.4.4-3.6.2-.7.6-1.3 1-2 .2-.3.4-.6.5-1z" fill="#14901f"/><path d="M100.9 22.5c.7 1.3 1.3 2.6 1.6 4 .4 2 .1 3.8-.7 5.7l-.9 1.9c-.2 0-.2-.2-.3-.4l-1.2-2.3-.6-1.2c-.2-.5-.3-1-.3-1.5 0-.6 0-1.3.2-1.9.1-.5.4-1 .6-1.4l.6-1.2c.3-.5.6-1 .8-1.6z" fill="#007c0c"/></svg>