<svg xmlns="http://www.w3.org/2000/svg" viewBox="0 0 236.2 102.3" xmlns:v="https://vecta.io/nano"><path d="M127.4 48c0-10.9 6.5-17.6 15.5-17.6s7.8 2.2 9.7 4.1l-2.3 2.8c-1.7-1.8-3.8-3.2-7.3-3.2-6.8 0-11.1 5.3-11.1 13.6s4 13.8 11.3 13.8 4.7-.8 6-1.9v-8.8H142v-3.6h11v14.2c-2.2 2.3-5.9 4-10.4 4-8.8 0-15.2-6.5-15.2-17.4zm41-16.9h4.9l11.4 33.7h-4.5L174.3 46c-1.2-3.7-2.3-7.4-3.3-11.4h-.3c-1 4-2.2 7.6-3.3 11.4l-5.9 18.8h-4.4l11.4-33.7h-.1zm-5.5 20h15.5v3.5h-15.5v-3.5zm31.3-16.4h-10.3v-3.6h24.7v3.6h-10.3v30.1h-4.4V34.7h.1zm21-3.6h19.5v3.6h-15.1v10.6h12.8v3.6h-12.8v12.3h15.6v3.6h-20V31.1h0z" fill="#fff"/><path d="M89.4 91.3h-.1c-.3-.1-.5 0-.6 0H86c-1 0-1.9-.3-2.8-.5-.6-.3-1.2-.5-1.8-.6 0-.1-.3-.1-.4-.3-2.6-1.4-4.6-3.5-5.9-6.2-.4-.8-.8-1.7-1.3-2.4L63.7 61.1c-1.3-2.6-1.9-5.3-2.1-8.1l.1-4.7c.3-2.3.9-4.5 1.8-6.5l3.8-7.7c2.1-4.1 4-8.2 6-12.2 0-.3.3-.4.3-.6.5-.6.8-1.5 1.2-2.2 1.4-2.9 3.5-5.4 6.5-6.9.9-.4 1.9-.8 2.8-.9.6 0 1.2-.3 1.8-.3h2.7c.3 0 .5.1.6 0h.1c0 .3.3.1.4.1 1.8.3 3.6.9 5.1 1.9 2.1 1.3 3.5 3.2 4.5 5.4l5 10.3 6.3 12.8c1.2 2.4 1.9 5 2.2 7.7 0 0 0 .3.1.3v3.8c-.3 0-.1.3-.1.4 0 .5-.1 1.2-.3 1.7-.4 2.3-1.2 4.5-2.3 6.7l-5.1 10.4c-2.1 4.1-4 8.1-6 12.2-.5 1.2-1.3 2.2-2.1 3.1-2.1 2.3-4.5 3.5-7.6 3.8 0 0-.3 0-.3.1v-.3zM102.6 51c0-2.3-.5-4.4-1.5-6.3l-7.3-14.6-3.7-7.6c-1-1.9-3.3-2.4-5-1.3-.6.5-1.2 1.2-1.5 1.9-1.7 3.3-3.2 6.5-4.9 9.9l-5.6 11.4c-.9 1.9-1.5 4-1.5 6.2s.5 4.6 1.5 6.8L84 79.2c.6 1.2 1.5 1.7 2.8 1.8 1.5 0 2.6-.8 3.2-2.1l10.9-21.7c1-2.1 1.5-4.2 1.5-6.4h.3z" fill="#bcbcbc"/><path d="M4.9 10.5h22c.1.1.4 0 .5 0 4.9.9 8.7 3.5 11.3 7.7 1.3 2.2 2.3 4.4 3.3 6.7 0 .1 0 .4-.3.5-.6 1.3-1.4 2.6-2.1 4-.9 1.8-1.9 3.6-2.8 5.4-.3.5-.5 1-.8 1.4-.9-1.7-1.8-3.5-2.6-5.1-1.2-2.3-2.3-4.7-3.6-7-.9-1.8-2.4-2.9-4.5-3.2-1.3-.1-2.6 0-3.7 0s-.5 0-.5.5v59.3c0 .4 0 .5.4.4h3.2c.5 0 1.2 0 1.7-.3 1.7-.5 2.7-1.7 3.5-3.1.9-1.7 1.7-3.3 2.4-4.9 1.3-2.4 2.4-4.9 3.7-7.3.1 0 .1.1.3.3.4.8.8 1.5 1.3 2.4l3.5 6.8.9 1.8c-1 2.2-2.1 4.2-3.2 6.4C36.5 87.4 33 90 28.4 91c-.5 0-1.2 0-1.7.3H4.4c-2.1-.5-3.3-1.9-4-4v-1.9c.1 0 0-.3.1-.4.6-2.4 2.6-4.1 5.1-4.1h4.7c.4 0 .5 0 .5-.4V21.1q0-.4-.4-.4H5.5c-2.4 0-4.6-1.9-5-4.5s1.2-5 3.6-5.6c.3 0 .4 0 .6-.3h0z" fill="#007c0c"/><path d="M36.1 36.2c.4-.4.5-.9.8-1.4l2.8-5.4c.6-1.3 1.4-2.6 2.1-4 0-.1.1-.4.3-.5.1 0 .1-.3.3-.4l3.2-6c2.3-4.1 5.8-6.7 10.3-7.8.3 0 .6 0 .9-.3h22.4c.9.1 1.5.5 2.2 1.2-3.1 1.4-5.1 3.8-6.5 6.9-.4.8-.6 1.5-1.2 2.2H59c-1.4 0-2.4.5-3.3 1.5-.4.4-.6.9-.9 1.4L48.1 36c0 .1-.1.3-.1.5q-.1 0-.3.3c-.6 1.3-1.4 2.6-2.1 3.8l-1.5 2.9c-.6 1.2-1.2 2.3-1.5 3.6-.4 1.5-.4 3.1-.4 4.6s.3 2.6.8 3.8c.4 1 .9 1.9 1.4 2.9l2.9 5.6c.1.4.3.8.6.9v.4L54.6 78c1 1.9 2.6 2.8 4.6 2.8h14.6c.4.8.8 1.7 1.3 2.4 1.3 2.7 3.3 4.7 5.9 6.2a.37.37 0 0 1 .4.3c-.5.5-1.2.9-1.8 1-.3 0-.6.1-.9.3H57.4c-2.4-.3-4.6-1.3-6.5-2.6-2.2-1.3-4-2.9-5.1-5.3-1-2.1-2.2-4.2-3.2-6.3 0-.1 0-.3-.3-.4l-.9-1.8-3.5-6.8c-.4-.8-.8-1.5-1.3-2.4 0 0 0-.3-.3-.3 0-.1 0-.3-.1-.4-.5-1-1-2.1-1.7-3.2-1.5-2.9-2.6-6.2-2.8-9.5-.3-3.1 0-6 1-8.8.6-1.8 1.5-3.3 2.3-4.9s.9-1.5 1.3-2.4h-.1z" fill="#14901f"/><path d="M47.7 36.6c1.7 3.2 3.2 6.4 3.8 10 .9 4.9.3 9.5-1.7 14-.6 1.5-1.5 3.1-2.3 4.6-.4-.1-.5-.6-.6-.9-1-1.9-1.9-3.8-2.9-5.6-.5-.9-1-1.9-1.4-2.9-.5-1.3-.8-2.6-.8-3.8s0-3.1.4-4.6c.4-1.3.9-2.4 1.5-3.6l1.5-2.9c.6-1.3 1.4-2.6 2.1-3.8 0 0 0-.3.3-.3h.1z" fill="#007c0c"/></svg>