<svg xmlns="http://www.w3.org/2000/svg" viewBox="0 0 105.5 188.5" xmlns:v="https://vecta.io/nano"><path d="M6.2 74.5h22.1v53.9H6.2z" fill="#fff"/><path d="M83.2 135.2H83c-.2-.1-.4 0-.6 0H80h-.2c-.9 0-1.8-.3-2.7-.5-.6-.2-1.1-.5-1.7-.7 0-.1-.2-.2-.4-.2-2.4-1.4-4.3-3.3-5.5-5.8l-1.1-2.3-9.4-19c-1.2-2.4-1.8-4.9-1.9-7.6l.1-4.4c.3-2.1.8-4.2 1.7-6.1l3.5-7.2L68 70c0-.2.2-.4.2-.6l1.1-2.1c1.3-2.8 3.2-5.1 6.1-6.4.9-.3 1.8-.7 2.7-.8.5 0 1.1-.2 1.7-.3h2.5c.2 0 .4.1.6 0h.2c0 .2.2.1.3.2 1.7.3 3.3.8 4.8 1.8 1.9 1.3 3.2 3 4.2 5l4.7 9.6 5.9 12c1.1 2.3 1.8 4.7 2 7.2 0 .1 0 .3.2.3v.2.2V99v.2.2c-.2 0-.1.2-.2.3 0 .5-.1 1.1-.2 1.6-.4 2.2-1.1 4.2-2.1 6.2l-4.8 9.7-5.7 11.4c-.5 1-1.1 2-1.9 2.8-1.9 2.1-4.2 3.3-7 3.6-.1 0-.2 0-.2.2zm12.4-37.6c0-2.1-.5-4.1-1.4-5.9l-6.8-13.6-3.5-7c-.9-1.8-3.1-2.3-4.6-1.2-.6.5-1.1 1.1-1.4 1.8l-4.5 9.2-5.2 10.6c-.9 1.8-1.4 3.7-1.4 5.8 0 2.2.4 4.4 1.4 6.4l10.2 20.4c.5 1.1 1.5 1.6 2.7 1.6 1.4 0 2.3-.7 3-2l10.1-20.2a15.59 15.59 0 0 0 1.5-5.9z" fill="#bcbcbc"/><path d="M4.2 59.7h20.6c.1.1.3 0 .5 0 4.6.8 8.1 3.3 10.5 7.2 1.2 2 2.1 4.1 3.1 6.2 0 .2-.1.3-.2.5a67.04 67.04 0 0 1-2 3.7l-2.7 5c-.2.4-.4.9-.7 1.3l-2.4-4.8-3.3-6.6c-.9-1.7-2.3-2.8-4.2-3-1.2-.1-2.3 0-3.5 0-.4 0-.5 0-.5.5v37.9 17.5c0 .3 0 .4.4.4h3c.5 0 1 0 1.6-.2 1.5-.5 2.5-1.5 3.2-2.9.8-1.5 1.5-3.1 2.3-4.6 1.1-2.3 2.3-4.5 3.4-6.8.1 0 .2.2.2.3.4.7.8 1.5 1.2 2.2l3.3 6.3c.3.6.6 1.1.8 1.7-1 2-1.9 4-3 6-2.1 3.9-5.4 6.4-9.7 7.3-.5.1-1 .1-1.5.3H4.1c0-.1-.1 0-.2 0-2-.5-3.2-1.8-3.7-3.7v-.2-1.5c.1 0 0-.2.1-.3.6-2.3 2.4-3.8 4.8-3.8h4.5c.3 0 .4 0 .4-.4V69.7c0-.3 0-.4-.4-.4H5c-2.3 0-4.3-1.8-4.6-4.1-.3-2.4 1.1-4.6 3.4-5.3.2 0 .4 0 .6-.2z" fill="#007c0c"/><path d="M33.4 83.8c.3-.4.5-.9.7-1.3l2.7-5 2-3.7c0-.1.1-.3.2-.5.1 0 .2-.2.2-.4l3-5.7c2.2-3.8 5.4-6.2 9.6-7.3.3 0 .6 0 .8-.2h20.7c0 .1.1 0 .2 0 .8.2 1.5.5 2.1 1-2.9 1.4-4.8 3.6-6.1 6.4-.3.7-.6 1.4-1.1 2.1H54.6c-1.3 0-2.3.5-3.1 1.5-.3.4-.6.8-.8 1.3l-6.2 11.6c0 .1-.2.3-.1.4-.1 0-.2.1-.2.2-.6 1.2-1.3 2.4-1.9 3.6l-1.5 2.7c-.6 1.1-1.1 2.1-1.5 3.3-.4 1.4-.4 2.9-.4 4.4 0 1.2.3 2.4.7 3.6.3 1 .9 1.8 1.3 2.7.9 1.8 1.8 3.6 2.8 5.3.2.3.2.7.6.9v.4l6.2 11.9c.9 1.7 2.4 2.6 4.4 2.6h13.6c.4.8.8 1.5 1.1 2.3 1.2 2.5 3.1 4.4 5.5 5.8a.76.76 0 0 1 .4.2c-.5.5-1.1.8-1.7 1-.3 0-.6.2-.8.3H53.2h-.1c-2.2-.3-4.3-1.2-6.2-2.3-2-1.3-3.7-2.8-4.8-4.9l-3-5.9c0-.1 0-.3-.2-.4-.2-.6-.5-1.1-.8-1.7l-3.3-6.3c-.4-.7-.8-1.5-1.2-2.2 0-.1-.1-.2-.2-.3 0-.2 0-.3-.1-.4l-1.5-2.9c-1.5-2.8-2.4-5.7-2.6-8.9-.2-2.8 0-5.6 1-8.3.5-1.6 1.4-3.1 2.2-4.6a22.56 22.56 0 0 0 1.1-2.2z" fill="#14901f"/><path d="M44.3 84.1c1.5 3 3 5.9 3.7 9.3.8 4.5.3 8.9-1.6 13.1-.6 1.5-1.4 2.9-2.1 4.3-.4-.2-.4-.6-.6-.9-.9-1.8-1.8-3.5-2.8-5.3-.5-.9-1-1.8-1.3-2.7-.4-1.2-.7-2.3-.7-3.6 0-1.5 0-2.9.4-4.4.3-1.2.9-2.2 1.5-3.3l1.5-2.7c.6-1.2 1.3-2.4 1.9-3.6 0 0 0-.2.2-.2z" fill="#007c0c"/></svg>