<?xml version="1.0" encoding="UTF-8"?>
<svg xmlns="http://www.w3.org/2000/svg" version="1.1" viewBox="0 0 105.5 188.5">
  <defs>
    <style>
      .cls-1 {
        fill: #fff;
      }

      .cls-2 {
        fill: #14901f;
      }

      .cls-3 {
        fill: #007c0c;
      }

      .cls-4 {
        fill: #bcbcbc;
      }
    </style>
  </defs>
  <!-- Generator: Adobe Illustrator 28.6.0, SVG Export Plug-In . SVG Version: 1.2.0 Build 709)  -->
  <g>
    <g id="_レイヤー_1" data-name="レイヤー_1">
      <rect class="cls-1" x="6.2" y="74.5" width="22.1" height="53.9"/>
      <g>
        <path class="cls-4" d="M83.2,135.2h-.2c-.2-.1-.4,0-.6,0h-2.4c0,0-.1,0-.2,0-.9,0-1.8-.3-2.7-.5-.6-.2-1.1-.5-1.7-.7,0-.1-.2-.2-.4-.2-2.4-1.4-4.3-3.3-5.5-5.8-.4-.8-.8-1.5-1.1-2.3-3.1-6.3-6.3-12.6-9.4-19-1.2-2.4-1.8-4.9-1.9-7.6,0-1.5,0-3,.1-4.4.3-2.1.8-4.2,1.7-6.1,1.2-2.4,2.4-4.8,3.5-7.2,1.9-3.8,3.8-7.6,5.6-11.4,0-.2.2-.4.2-.6.4-.7.7-1.4,1.1-2.1,1.3-2.8,3.2-5.1,6.1-6.4.9-.3,1.8-.7,2.7-.8.5,0,1.1-.2,1.7-.3.8,0,1.7,0,2.5,0,.2,0,.4.1.6,0h.2c0,.2.2.1.3.2,1.7.3,3.3.8,4.8,1.8,1.9,1.3,3.2,3,4.2,5,1.6,3.2,3.1,6.4,4.7,9.6,2,4,3.9,8,5.9,12,1.1,2.3,1.8,4.7,2,7.2,0,.1,0,.3.2.3v.2c0,0,0,.2,0,.2,0,.9,0,1.8,0,2.7,0,0,0,.2,0,.2v.2c-.2,0-.1.2-.2.3,0,.5-.1,1.1-.2,1.6-.4,2.2-1.1,4.2-2.1,6.2-1.6,3.2-3.2,6.5-4.8,9.7-1.9,3.8-3.8,7.6-5.7,11.4-.5,1-1.1,2-1.9,2.8-1.9,2.1-4.2,3.3-7,3.6-.1,0-.2,0-.2.2ZM95.6,97.6c0-2.1-.5-4.1-1.4-5.9-2.3-4.5-4.5-9.1-6.8-13.6-1.2-2.3-2.3-4.7-3.5-7-.9-1.8-3.1-2.3-4.6-1.2-.6.5-1.1,1.1-1.4,1.8-1.5,3.1-3,6.2-4.5,9.2-1.7,3.5-3.5,7.1-5.2,10.6-.9,1.8-1.4,3.7-1.4,5.8,0,2.2.4,4.4,1.4,6.4,3.4,6.8,6.8,13.6,10.2,20.4.5,1.1,1.5,1.6,2.7,1.6,1.4,0,2.3-.7,3-2,3.4-6.7,6.8-13.5,10.1-20.2.9-1.9,1.4-3.9,1.5-5.9Z"/>
        <path class="cls-3" d="M4.2,59.7h20.6c.1.1.3,0,.5,0,4.6.8,8.1,3.3,10.5,7.2,1.2,2,2.1,4.1,3.1,6.2,0,.2-.1.3-.2.5-.6,1.2-1.3,2.5-2,3.7-.9,1.7-1.8,3.4-2.7,5-.2.4-.4.9-.7,1.3-.8-1.6-1.6-3.2-2.4-4.8-1.1-2.2-2.2-4.4-3.3-6.6-.9-1.7-2.3-2.8-4.2-3-1.2-.1-2.3,0-3.5,0-.4,0-.5,0-.5.5,0,12.6,0,25.3,0,37.9s0,11.7,0,17.5c0,.3,0,.4.4.4,1,0,2,0,3,0,.5,0,1,0,1.6-.2,1.5-.5,2.5-1.5,3.2-2.9.8-1.5,1.5-3.1,2.3-4.6,1.1-2.3,2.3-4.5,3.4-6.8.1,0,.2.2.2.3.4.7.8,1.5,1.2,2.2,1.1,2.1,2.2,4.2,3.3,6.3.3.6.6,1.1.8,1.7-1,2-1.9,4-3,6-2.1,3.9-5.4,6.4-9.7,7.3-.5.1-1,.1-1.5.3H4.1c0-.1-.1,0-.2,0-2-.5-3.2-1.8-3.7-3.7,0,0,0-.2,0-.2v-1.5c.1,0,0-.2.1-.3.6-2.3,2.4-3.8,4.8-3.8,1.5,0,3,0,4.5,0,.3,0,.4,0,.4-.4,0-18.5,0-37,0-55.5,0-.3,0-.4-.4-.4-1.5,0-3.1,0-4.6,0-2.3,0-4.3-1.8-4.6-4.1-.3-2.4,1.1-4.6,3.4-5.3.2,0,.4,0,.6-.2Z"/>
        <path class="cls-2" d="M33.4,83.8c.3-.4.5-.9.7-1.3.9-1.7,1.8-3.4,2.7-5,.6-1.2,1.3-2.5,2-3.7,0-.1.1-.3.2-.5.1,0,.2-.2.2-.4,1-1.9,1.9-3.8,3-5.7,2.2-3.8,5.4-6.2,9.6-7.3.3,0,.6,0,.8-.2h20.7c0,.1.1,0,.2,0,.8.2,1.5.5,2.1,1-2.9,1.4-4.8,3.6-6.1,6.4-.3.7-.6,1.4-1.1,2.1-4.6,0-9.2,0-13.8,0-1.3,0-2.3.5-3.1,1.5-.3.4-.6.8-.8,1.3-2.1,3.9-4.1,7.7-6.2,11.6,0,.1-.2.3-.1.4-.1,0-.2.1-.2.2-.6,1.2-1.3,2.4-1.9,3.6-.5.9-1,1.8-1.5,2.7-.6,1.1-1.1,2.1-1.5,3.3-.4,1.4-.4,2.9-.4,4.4,0,1.2.3,2.4.7,3.6.3,1,.9,1.8,1.3,2.7.9,1.8,1.8,3.6,2.8,5.3.2.3.2.7.6.9,0,.1,0,.3,0,.4,2.1,4,4.1,7.9,6.2,11.9.9,1.7,2.4,2.6,4.4,2.6,4.5,0,9.1,0,13.6,0,.4.8.8,1.5,1.1,2.3,1.2,2.5,3.1,4.4,5.5,5.8.1,0,.3.1.4.2-.5.5-1.1.8-1.7,1-.3,0-.6.2-.8.3h-19.8c0,0,0,0-.1,0-2.2-.3-4.3-1.2-6.2-2.3-2-1.3-3.7-2.8-4.8-4.9-1-2-2-3.9-3-5.9,0-.1,0-.3-.2-.4-.2-.6-.5-1.1-.8-1.7-1.1-2.1-2.2-4.2-3.3-6.3-.4-.7-.8-1.5-1.2-2.2,0-.1-.1-.2-.2-.3,0-.2,0-.3-.1-.4-.5-1-1-2-1.5-2.9-1.5-2.8-2.4-5.7-2.6-8.9-.2-2.8,0-5.6,1-8.3.5-1.6,1.4-3.1,2.2-4.6.4-.7.8-1.5,1.1-2.2Z"/>
        <path class="cls-3" d="M44.3,84.1c1.5,3,3,5.9,3.7,9.3.8,4.5.3,8.9-1.6,13.1-.6,1.5-1.4,2.9-2.1,4.3-.4-.2-.4-.6-.6-.9-.9-1.8-1.8-3.5-2.8-5.3-.5-.9-1-1.8-1.3-2.7-.4-1.2-.7-2.3-.7-3.6,0-1.5,0-2.9.4-4.4.3-1.2.9-2.2,1.5-3.3.5-.9,1-1.8,1.5-2.7.6-1.2,1.3-2.4,1.9-3.6,0,0,0-.2.2-.2Z"/>
      </g>
    </g>
  </g>
</svg>