<svg xmlns="http://www.w3.org/2000/svg" style="height: 0; width: 0; position: absolute;"><symbol id="small" viewBox="0 0 46 84"><title>small</title><g class="nc-icon-wrapper" stroke="none"><defs></defs><g id="1724064405409-6520178_Layer_1"><path class="cls-3" d="M36.3,58.8h0c0,0-.2,0-.3,0h-1s0,0,0,0c-.4,0-.8-.1-1.2-.2-.3,0-.5-.2-.7-.3,0,0-.1,0-.2-.1-1.1-.6-1.9-1.4-2.4-2.5-.2-.3-.3-.7-.5-1-1.4-2.8-2.8-5.5-4.1-8.3-.5-1-.8-2.2-.8-3.3,0-.6,0-1.3,0-1.9.1-.9.3-1.8.8-2.7.5-1.1,1-2.1,1.5-3.2.8-1.7,1.6-3.3,2.5-5,0,0,0-.2,0-.3.2-.3.3-.6.5-.9.6-1.2,1.4-2.2,2.7-2.8.4-.1.8-.3,1.2-.4.2,0,.5,0,.7-.1.4,0,.7,0,1.1,0,0,0,.2,0,.3,0h0c0,0,0,0,.1,0,.7.1,1.4.4,2.1.8.8.5,1.4,1.3,1.9,2.2.7,1.4,1.4,2.8,2.1,4.2.9,1.7,1.7,3.5,2.6,5.2.5,1,.8,2.1.9,3.2,0,0,0,.1,0,.1h0c0,.1,0,.2,0,.2,0,.4,0,.8,0,1.2,0,0,0,0,0,.1h0c0,.1,0,.2,0,.2,0,.2,0,.5,0,.7-.2,1-.5,1.8-.9,2.7-.7,1.4-1.4,2.8-2.1,4.2-.8,1.7-1.6,3.3-2.5,5-.2.4-.5.9-.8,1.2-.8.9-1.9,1.4-3.1,1.6,0,0,0,0,0,0ZM41.8,42.3c0-.9-.2-1.8-.6-2.6-1-2-2-4-3-6-.5-1-1-2.1-1.5-3.1-.4-.8-1.3-1-2-.5-.3.2-.5.5-.6.8-.7,1.3-1.3,2.7-2,4-.8,1.5-1.5,3.1-2.3,4.6-.4.8-.6,1.6-.6,2.5,0,1,.2,1.9.6,2.8,1.5,3,3,6,4.5,8.9.2.5.6.7,1.2.7.6,0,1-.3,1.3-.9,1.5-2.9,3-5.9,4.4-8.8.4-.8.6-1.7.6-2.6Z" fill="#bcbcbc"></path><path class="cls-2" d="M1.8,25.7h9c0,0,.1,0,.2,0,2,.4,3.6,1.4,4.6,3.2.5.9.9,1.8,1.4,2.7,0,0,0,.1,0,.2-.3.5-.6,1.1-.9,1.6-.4.7-.8,1.5-1.2,2.2-.1.2-.2.4-.3.6-.4-.7-.7-1.4-1.1-2.1-.5-1-1-1.9-1.5-2.9-.4-.8-1-1.2-1.8-1.3-.5,0-1,0-1.5,0-.2,0-.2,0-.2.2,0,5.5,0,11.1,0,16.6s0,5.1,0,7.7c0,.1,0,.2.2.2.4,0,.9,0,1.3,0,.2,0,.5,0,.7,0,.7-.2,1.1-.7,1.4-1.3.3-.7.7-1.3,1-2,.5-1,1-2,1.5-3,0,0,0,0,0,.1.2.3.3.7.5,1,.5.9.9,1.8,1.4,2.8.1.2.3.5.4.7-.4.9-.9,1.8-1.3,2.6-.9,1.7-2.4,2.8-4.3,3.2-.2,0-.5,0-.7.1H1.7s0,0,0,0c-.9-.2-1.4-.8-1.6-1.6,0,0,0,0,0,0v-.7c0,0,0,0,0-.1.2-1,1.1-1.7,2.1-1.7.6,0,1.3,0,1.9,0,.1,0,.2,0,.2-.2,0-8.1,0-16.2,0-24.3,0-.1,0-.2-.2-.2-.7,0-1.3,0-2,0-1,0-1.9-.8-2-1.8-.1-1,.5-2,1.5-2.3,0,0,.2,0,.3,0Z" fill="#007c0c"></path><path class="cls-1" d="M14.6,36.3c.1-.2.2-.4.3-.6.4-.7.8-1.5,1.2-2.2.3-.5.6-1.1.9-1.6,0,0,0-.1,0-.2,0,0,0-.1.1-.2.4-.8.9-1.7,1.3-2.5.9-1.7,2.4-2.7,4.2-3.2.1,0,.2,0,.4,0h9s0,0,0,0c.3,0,.7.2.9.4-1.3.6-2.1,1.6-2.7,2.8-.1.3-.3.6-.5.9-2,0-4,0-6,0-.6,0-1,.2-1.4.6-.1.2-.3.4-.4.6-.9,1.7-1.8,3.4-2.7,5.1,0,0,0,.1,0,.2,0,0,0,0,0,0-.3.5-.6,1-.8,1.6-.2.4-.4.8-.6,1.2-.2.5-.5.9-.6,1.4-.2.6-.2,1.3-.2,1.9,0,.5.1,1.1.3,1.6.2.4.4.8.6,1.2.4.8.8,1.6,1.2,2.3,0,.1.1.3.3.4,0,0,0,.1,0,.2.9,1.7,1.8,3.5,2.7,5.2.4.8,1,1.1,1.9,1.1,2,0,4,0,5.9,0,.2.3.3.7.5,1,.5,1.1,1.4,1.9,2.4,2.5,0,0,.1,0,.2.1-.2.2-.5.3-.7.4-.1,0-.2,0-.4.1h-8.7s0,0,0,0c-1-.1-1.9-.5-2.7-1-.9-.5-1.6-1.2-2.1-2.1-.4-.9-.9-1.7-1.3-2.6,0,0,0-.1,0-.2,0-.3-.2-.5-.4-.7-.5-.9-.9-1.8-1.4-2.8-.2-.3-.3-.7-.5-1,0,0,0,0,0-.1,0,0,0-.1,0-.2-.2-.4-.4-.9-.7-1.3-.6-1.2-1.1-2.5-1.1-3.9,0-1.2,0-2.5.4-3.6.2-.7.6-1.4,1-2,.2-.3.4-.6.5-1Z" fill="#14901f"></path><path class="cls-2" d="M19.3,36.4c.7,1.3,1.3,2.6,1.6,4.1.4,2,.1,3.9-.7,5.7-.3.6-.6,1.3-.9,1.9-.2,0-.2-.3-.3-.4-.4-.8-.8-1.6-1.2-2.3-.2-.4-.4-.8-.6-1.2-.2-.5-.3-1-.3-1.6,0-.6,0-1.3.2-1.9.1-.5.4-1,.6-1.4.2-.4.4-.8.6-1.2.3-.5.6-1,.8-1.6,0,0,0,0,0,0Z" fill="#007c0c"></path></g></g></symbol><symbol id="large" viewBox="0 0 192 84"><title>large</title><g class="nc-icon-wrapper" stroke="none"><defs></defs><g id="1724064405403-2321519_Layer_1"><path d="M103,39.6c0-8.8,5.3-14.1,12.5-14.1s6.3,1.7,7.9,3.4l-1.9,2.3c-1.4-1.4-3.1-2.6-5.9-2.6-5.5,0-9,4.2-9,11s3.2,11.1,9,11.1,3.8-.6,4.9-1.6v-7.1h-5.8v-2.9h8.9v11.4c-1.8,1.8-4.7,3.2-8.4,3.2-7.2,0-12.3-5.2-12.3-14.1Z"></path><path d="M136.1,25.9h3.9l9.2,27.2h-3.7l-4.8-15.2c-1-3-1.9-6-2.7-9.2h-.2c-.8,3.2-1.7,6.1-2.7,9.2l-4.8,15.2h-3.5l9.2-27.2ZM131.7,42.1h12.5v2.8h-12.5v-2.8Z"></path><path d="M156.9,28.9h-8.2v-2.9h19.9v2.9h-8.2v24.3h-3.5v-24.3Z"></path><path d="M173.9,25.9h15.7v2.9h-12.2v8.5h10.3v2.9h-10.3v9.9h12.6v2.9h-16.1v-27.2Z"></path><g><path class="cls-3" d="M72.3,74.5h-.1c-.2-.1-.4,0-.5,0h-2c0,0-.1,0-.2,0-.8,0-1.6-.2-2.3-.5-.5-.2-1-.4-1.5-.6,0-.1-.2-.1-.3-.2-2.1-1.2-3.7-2.8-4.8-5-.3-.7-.7-1.3-1-2-2.7-5.5-5.4-10.9-8.1-16.4-1-2.1-1.5-4.3-1.6-6.5,0-1.3,0-2.6.1-3.8.2-1.8.7-3.6,1.5-5.3,1-2.1,2-4.2,3.1-6.2,1.6-3.3,3.2-6.6,4.9-9.9,0-.2.2-.3.2-.5.4-.6.6-1.2.9-1.8,1.2-2.4,2.8-4.4,5.3-5.6.8-.3,1.5-.6,2.3-.7.5,0,1-.2,1.4-.2.7,0,1.5,0,2.2,0,.2,0,.4.1.5,0h.1c0,.2.2.1.3.1,1.5.2,2.9.7,4.1,1.5,1.6,1.1,2.8,2.6,3.7,4.3,1.4,2.8,2.7,5.5,4.1,8.3,1.7,3.5,3.4,6.9,5.1,10.4,1,2,1.6,4.1,1.8,6.2,0,0,0,.2.1.2v.2c0,0,0,.1,0,.2,0,.8,0,1.5,0,2.3,0,0,0,.2,0,.2v.2c-.2,0-.1.2-.1.3,0,.5-.1.9-.2,1.4-.3,1.9-1,3.6-1.8,5.4-1.4,2.8-2.8,5.6-4.1,8.3-1.6,3.3-3.3,6.6-4.9,9.8-.4.9-1,1.7-1.6,2.4-1.6,1.8-3.7,2.8-6,3.1,0,0-.2,0-.2.1ZM83,42c0-1.8-.4-3.5-1.2-5.1-1.9-3.9-3.9-7.8-5.8-11.8-1-2-2-4-3-6.1-.8-1.5-2.6-2-4-1-.5.4-.9.9-1.2,1.5-1.3,2.7-2.6,5.3-3.9,8-1.5,3.1-3,6.1-4.5,9.2-.8,1.6-1.2,3.2-1.2,5,0,1.9.4,3.8,1.2,5.5,2.9,5.9,5.9,11.8,8.8,17.6.5.9,1.3,1.4,2.3,1.4,1.2,0,2-.6,2.6-1.7,2.9-5.8,5.8-11.6,8.8-17.4.8-1.6,1.2-3.4,1.3-5.1Z" fill="#bcbcbc"></path><path class="cls-2" d="M4.1,9.3h17.8c.1.1.3,0,.4,0,4,.7,7,2.8,9.1,6.2,1,1.7,1.8,3.6,2.7,5.4,0,.1-.1.3-.2.4-.6,1.1-1.1,2.1-1.7,3.2-.8,1.5-1.5,2.9-2.3,4.4-.2.4-.4.8-.6,1.2-.7-1.4-1.4-2.8-2.1-4.1-1-1.9-1.9-3.8-2.9-5.7-.8-1.5-1.9-2.4-3.6-2.6-1-.1-2,0-3,0-.3,0-.4,0-.4.4,0,10.9,0,21.8,0,32.7s0,10.1,0,15.1c0,.3,0,.4.3.4.9,0,1.7,0,2.6,0,.5,0,.9,0,1.3-.2,1.3-.4,2.2-1.3,2.8-2.5.7-1.3,1.3-2.6,2-4,1-2,2-3.9,3-5.9.1,0,.1.1.2.2.3.6.7,1.3,1,1.9.9,1.8,1.9,3.6,2.8,5.5.2.5.5.9.7,1.5-.9,1.7-1.7,3.5-2.6,5.1-1.8,3.4-4.6,5.5-8.4,6.3-.4,0-.9,0-1.3.2H4c0,0-.1,0-.2,0-1.7-.4-2.7-1.5-3.2-3.2,0,0,0-.1,0-.2v-1.3c.1,0,0-.2.1-.3.5-2,2.1-3.3,4.1-3.3,1.3,0,2.6,0,3.8,0,.3,0,.4,0,.4-.4,0-16,0-31.9,0-47.9,0-.3,0-.4-.4-.3-1.3,0-2.6,0-3.9,0-2,0-3.7-1.6-4-3.6-.3-2,1-4,2.9-4.6.2,0,.4,0,.5-.2Z" fill="#007c0c"></path><path class="cls-1" d="M29.3,30.1c.3-.4.4-.8.6-1.2.8-1.4,1.5-2.9,2.3-4.4.6-1.1,1.1-2.1,1.7-3.2,0-.1.1-.3.2-.4.1,0,.1-.2.2-.3.9-1.6,1.7-3.3,2.6-4.9,1.9-3.3,4.6-5.3,8.3-6.3.2,0,.5,0,.7-.2h17.8c0,0,.1,0,.2,0,.7.1,1.3.4,1.8.9-2.5,1.2-4.1,3.1-5.3,5.6-.3.6-.6,1.2-.9,1.8-4,0-7.9,0-11.9,0-1.1,0-2,.4-2.7,1.3-.3.3-.5.7-.7,1.1-1.8,3.3-3.6,6.7-5.4,10,0,.1-.1.2-.1.4-.1,0-.1,0-.2.2-.5,1-1.1,2.1-1.6,3.1-.4.8-.9,1.6-1.3,2.4-.5.9-1,1.8-1.3,2.9-.3,1.2-.4,2.5-.3,3.8,0,1.1.2,2.1.6,3.1.3.8.7,1.6,1.1,2.4.8,1.5,1.6,3.1,2.4,4.6.1.3.2.6.5.8,0,.1,0,.2,0,.4,1.8,3.4,3.5,6.8,5.3,10.2.8,1.5,2.1,2.3,3.8,2.3,3.9,0,7.8,0,11.7,0,.3.7.7,1.3,1,2,1.1,2.2,2.7,3.8,4.8,5,.1,0,.2,0,.3.2-.4.4-.9.7-1.5.9-.2,0-.5.1-.7.2h-17.1c0,0,0,0-.1,0-1.9-.2-3.7-1-5.3-2-1.7-1.1-3.2-2.4-4.2-4.2-.9-1.7-1.7-3.4-2.6-5.1,0-.1,0-.2-.2-.3-.2-.5-.5-1-.7-1.5-.9-1.8-1.9-3.6-2.8-5.5-.3-.6-.7-1.3-1-1.9,0,0,0-.2-.2-.2,0-.1,0-.2-.1-.3-.4-.8-.9-1.7-1.3-2.5-1.3-2.4-2.1-4.9-2.3-7.7-.2-2.4,0-4.8.9-7.2.5-1.4,1.2-2.7,1.9-4,.3-.6.7-1.3,1-1.9Z" fill="#14901f"></path><path class="cls-2" d="M38.7,30.4c1.3,2.6,2.6,5.1,3.2,8,.7,3.9.2,7.6-1.3,11.3-.6,1.3-1.2,2.5-1.8,3.7-.3-.1-.4-.5-.5-.8-.8-1.5-1.6-3.1-2.4-4.6-.4-.8-.8-1.5-1.1-2.4-.4-1-.6-2-.6-3.1,0-1.3,0-2.5.3-3.8.3-1,.8-1.9,1.3-2.9.4-.8.9-1.6,1.3-2.4.6-1,1.1-2.1,1.6-3.1,0,0,0-.2.2-.2Z" fill="#007c0c"></path></g></g></g></symbol></svg>